<?xml version="1.0" standalone="no"?>
<!DOCTYPE svg PUBLIC "-//W3C//DTD SVG 20010904//EN"
 "http://www.w3.org/TR/2001/REC-SVG-20010904/DTD/svg10.dtd">
<svg version="1.0" xmlns="http://www.w3.org/2000/svg"
 width="300.000000pt" height="300.000000pt" viewBox="0 0 300.000000 300.000000"
 preserveAspectRatio="xMidYMid meet">
<metadata>
Created by potrace 1.14, written by Peter Selinger 2001-2017
</metadata>
<g transform="translate(0.000000,300.000000) scale(0.100000,-0.100000)"
fill="#000000" stroke="none">
<path d="M0 1500 l0 -1500 1500 0 1500 0 0 1500 0 1500 -1500 0 -1500 0 0
-1500z m965 1371 c3 -5 1 -12 -5 -16 -5 -3 -10 1 -10 9 0 18 6 21 15 7z m48
-16 c-7 -21 -13 -19 -13 6 0 11 4 18 10 14 5 -3 7 -12 3 -20z m27 4 c0 -11 -4
-18 -10 -14 -5 3 -7 12 -3 20 7 21 13 19 13 -6z m36 8 c8 3 14 -1 14 -9 0 -7
-9 -14 -20 -15 -15 -1 -20 4 -19 20 0 12 3 17 5 10 3 -7 12 -9 20 -6z m64 -10
c0 -16 -3 -17 -14 -8 -11 9 -15 9 -19 -1 -3 -7 -6 -4 -6 7 -1 14 5 21 19 21
13 0 20 -7 20 -19z m50 0 c0 -16 -3 -17 -14 -8 -11 9 -15 9 -19 -1 -3 -7 -6
-3 -6 9 -1 16 4 21 19 20 12 -1 20 -8 20 -20z m50 6 c0 -6 -9 -11 -20 -10 -11
1 -20 7 -20 14 0 6 9 11 20 10 11 -1 20 -7 20 -14z m48 5 c-2 -5 -8 -9 -13 -9
-5 0 -11 4 -13 9 -1 5 4 9 13 9 9 0 14 -4 13 -9z m42 0 c0 6 5 12 10 12 6 0
10 -6 10 -14 0 -18 -33 -14 -38 5 -3 11 -1 11 7 -1 7 -10 11 -11 11 -2z m44
-4 c3 -8 2 -12 -4 -9 -6 3 -10 10 -10 16 0 14 7 11 14 -7z m26 -6 c0 -19 -2
-20 -10 -8 -13 19 -13 30 0 30 6 0 10 -10 10 -22z m23 7 c4 -8 2 -17 -3 -20
-6 -4 -10 3 -10 14 0 25 6 27 13 6z m27 -7 c0 -19 -2 -20 -10 -8 -13 19 -13
30 0 30 6 0 10 -10 10 -22z m49 -3 c0 -11 -3 -14 -6 -7 -4 10 -8 10 -19 1 -11
-9 -14 -8 -14 8 0 12 7 19 20 19 14 0 20 -7 19 -21z m50 0 c0 -11 -3 -14 -6
-7 -4 10 -8 10 -19 1 -11 -9 -14 -8 -14 8 0 12 7 19 20 19 14 0 20 -7 19 -21z
m51 0 c0 -17 -2 -17 -10 -5 -9 13 -11 13 -20 0 -8 -12 -10 -12 -10 5 0 14 6
21 20 21 14 0 20 -7 20 -21z m50 2 c0 -16 -3 -17 -14 -8 -11 9 -15 9 -19 -1
-3 -7 -6 -4 -6 7 -1 14 5 21 19 21 13 0 20 -7 20 -19z m50 0 c0 -16 -3 -17
-14 -8 -11 9 -15 9 -19 -1 -3 -7 -6 -3 -6 9 -1 16 4 21 19 20 12 -1 20 -8 20
-20z m36 3 c5 1 10 -3 12 -8 2 -6 -5 -9 -15 -8 -10 2 -19 11 -21 22 -2 14 -1
16 6 6 5 -8 13 -13 18 -12z m60 -2 c0 -10 -1 -18 -3 -18 -1 0 -7 8 -12 18 -7
13 -6 19 2 19 7 0 13 -9 13 -19z m-1012 -74 c3 -7 -2 -10 -15 -7 -22 6 -26 20
-4 20 8 0 16 -6 19 -13z m56 1 c0 -8 -7 -11 -20 -8 -11 3 -20 8 -20 12 0 4 9
7 20 8 11 1 20 -4 20 -12z m50 2 c0 -7 -9 -13 -20 -13 -11 0 -20 5 -20 11 0 6
9 11 20 12 11 1 20 -4 20 -10z m50 0 c0 -7 -9 -13 -20 -13 -11 0 -20 5 -20 11
0 6 9 11 20 12 11 1 20 -4 20 -10z m50 -2 c0 -6 -9 -11 -20 -11 -11 0 -20 5
-20 11 0 6 9 11 20 11 11 0 20 -5 20 -11z m50 0 c0 -6 -9 -11 -20 -11 -11 0
-20 5 -20 11 0 6 9 11 20 11 11 0 20 -5 20 -11z m50 0 c0 -6 -9 -11 -20 -11
-11 0 -20 6 -20 13 0 6 9 11 20 10 11 -1 20 -6 20 -12z m50 0 c0 -6 -9 -11
-20 -11 -11 0 -20 6 -20 13 0 6 9 11 20 10 11 -1 20 -6 20 -12z m50 0 c0 -6
-9 -11 -20 -11 -11 0 -20 6 -20 13 0 6 9 11 20 10 11 -1 20 -6 20 -12z m50 4
c0 -4 -9 -9 -20 -12 -13 -3 -20 0 -20 8 0 8 9 13 20 12 11 -1 20 -4 20 -8z
m50 -1 c0 -4 -7 -8 -15 -8 -8 0 -15 4 -15 8 0 5 7 9 15 9 8 0 15 -4 15 -9z
m60 -3 c0 -8 -7 -11 -20 -8 -11 3 -20 8 -20 12 0 4 9 7 20 8 11 1 20 -4 20
-12z m50 0 c0 -8 -7 -11 -20 -8 -11 3 -20 8 -20 12 0 4 9 7 20 8 11 1 20 -4
20 -12z m50 2 c0 -7 -9 -13 -20 -13 -11 0 -20 5 -20 11 0 6 9 11 20 12 11 1
20 -4 20 -10z m50 0 c0 -7 -9 -13 -20 -13 -11 0 -20 5 -20 11 0 6 9 11 20 12
11 1 20 -4 20 -10z m50 -2 c0 -6 -9 -11 -20 -11 -11 0 -20 5 -20 11 0 6 9 11
20 11 11 0 20 -5 20 -11z m50 0 c0 -6 -9 -11 -20 -11 -11 0 -20 5 -20 11 0 6
9 11 20 11 11 0 20 -5 20 -11z m50 0 c0 -6 -9 -11 -20 -11 -11 0 -20 6 -20 13
0 6 9 11 20 10 11 -1 20 -6 20 -12z m50 0 c0 -6 -9 -11 -20 -11 -11 0 -20 6
-20 13 0 6 9 11 20 10 11 -1 20 -6 20 -12z m50 0 c0 -6 -9 -11 -20 -11 -11 0
-20 6 -20 13 0 6 9 11 20 10 11 -1 20 -6 20 -12z m50 4 c0 -4 -9 -9 -20 -12
-13 -3 -20 0 -20 8 0 8 9 13 20 12 11 -1 20 -4 20 -8z m50 -1 c0 -4 -7 -8 -15
-8 -8 0 -15 4 -15 8 0 5 7 9 15 9 8 0 15 -4 15 -9z m60 -3 c0 -8 -7 -11 -20
-8 -11 3 -20 8 -20 12 0 4 9 7 20 8 11 1 20 -4 20 -12z m50 2 c0 -7 -9 -13
-20 -13 -11 0 -20 5 -20 11 0 6 9 11 20 12 11 1 20 -4 20 -10z m50 0 c0 -7 -9
-13 -20 -13 -11 0 -20 5 -20 11 0 6 9 11 20 12 11 1 20 -4 20 -10z m43 5 c4 9
6 7 6 -4 1 -11 -6 -16 -19 -15 -11 1 -20 8 -20 15 0 11 3 12 14 3 11 -9 15 -9
19 1z m-1328 -12 c3 -6 -1 -7 -9 -4 -18 7 -21 14 -7 14 6 0 13 -4 16 -10z
m-122 -75 c-7 -21 -13 -19 -13 6 0 11 4 18 10 14 5 -3 7 -12 3 -20z m27 4 c0
-11 -4 -18 -10 -14 -5 3 -7 12 -3 20 7 21 13 19 13 -6z m50 7 c0 -7 -9 -16
-20 -19 -13 -3 -20 0 -20 10 0 9 6 13 15 9 8 -3 15 -1 15 4 0 6 2 10 5 10 3 0
5 -6 5 -14z m41 5 c7 11 9 10 9 -4 0 -20 -22 -19 -26 1 -2 9 -1 9 3 1 4 -8 8
-7 14 2z m49 -1 c0 13 1 13 10 0 5 -8 10 -19 10 -25 0 -5 -4 -4 -9 3 -4 8 -12
13 -17 12 -5 -1 -10 4 -12 12 -2 9 0 8 7 -2 10 -13 11 -13 11 0z m56 -3 c9 3
14 -1 13 -13 0 -11 -3 -14 -5 -7 -3 7 -12 9 -20 6 -9 -3 -14 1 -13 13 0 11 3
14 5 7 3 -7 12 -9 20 -6z m37 -2 c4 -8 2 -17 -3 -20 -6 -4 -10 3 -10 14 0 25
6 27 13 6z m27 -7 c0 -18 -2 -20 -9 -8 -6 8 -7 18 -5 22 9 14 14 9 14 -14z
m23 7 c4 -8 2 -17 -3 -20 -6 -4 -10 3 -10 14 0 25 6 27 13 6z m27 -7 c0 -18
-2 -20 -9 -8 -6 8 -7 18 -5 22 9 14 14 9 14 -14z m49 -3 c0 -11 -3 -14 -6 -7
-4 10 -8 10 -19 1 -11 -9 -14 -8 -14 8 0 12 7 19 20 19 14 0 20 -7 19 -21z
m51 5 c0 -9 -8 -16 -20 -16 -12 0 -20 7 -20 16 0 9 8 16 20 16 12 0 20 -7 20
-16z m43 12 c3 7 6 4 6 -7 1 -14 -5 -21 -19 -21 -13 0 -20 7 -20 19 0 16 3 17
14 8 11 -9 15 -9 19 1z m50 0 c3 7 6 4 6 -7 1 -14 -5 -21 -19 -21 -13 0 -20 7
-20 19 0 16 3 17 14 8 11 -9 15 -9 19 1z m50 0 c3 7 6 4 6 -7 1 -14 -5 -21
-19 -21 -13 0 -20 7 -20 19 0 16 3 17 14 8 11 -9 15 -9 19 1z m48 -1 c7 11 9
11 9 -2 0 -9 -9 -19 -20 -22 -12 -3 -20 0 -20 7 0 18 14 29 19 15 2 -8 6 -7
12 2z m50 0 c7 11 9 10 9 -4 0 -20 -22 -19 -26 1 -2 9 -1 9 3 1 4 -8 8 -7 14
2z m49 -3 c0 7 5 10 10 7 6 -3 10 -14 10 -23 0 -13 -2 -14 -9 -4 -4 8 -12 13
-17 12 -5 -1 -10 4 -12 12 -2 9 0 8 7 -2 8 -11 11 -12 11 -2z m44 -3 c3 -8 1
-15 -4 -15 -6 0 -10 7 -10 15 0 8 2 15 4 15 2 0 6 -7 10 -15z m26 -7 c0 -18
-2 -20 -9 -8 -6 8 -7 18 -5 22 9 14 14 9 14 -14z m23 7 c4 -8 2 -17 -3 -20 -6
-4 -10 3 -10 14 0 25 6 27 13 6z m27 -7 c0 -18 -2 -20 -9 -8 -6 8 -7 18 -5 22
9 14 14 9 14 -14z m23 7 c4 -8 2 -17 -3 -20 -6 -4 -10 3 -10 14 0 25 6 27 13
6z m27 -7 c0 -18 -2 -20 -9 -8 -6 8 -7 18 -5 22 9 14 14 9 14 -14z m49 -3 c0
-11 -3 -14 -6 -7 -4 10 -8 10 -19 1 -11 -9 -14 -8 -14 8 0 12 7 19 20 19 14 0
20 -7 19 -21z m51 5 c0 -9 -8 -16 -20 -16 -12 0 -20 7 -20 16 0 9 8 16 20 16
12 0 20 -7 20 -16z m43 12 c3 7 6 4 6 -7 1 -14 -5 -21 -19 -21 -13 0 -20 7
-20 19 0 16 3 17 14 8 11 -9 15 -9 19 1z m50 0 c3 7 6 4 6 -7 1 -14 -5 -21
-19 -21 -13 0 -20 7 -20 19 0 16 3 17 14 8 11 -9 15 -9 19 1z m50 0 c3 7 6 4
6 -7 1 -14 -5 -21 -19 -21 -13 0 -20 7 -20 19 0 16 3 17 14 8 11 -9 15 -9 19
1z m48 -1 c7 11 9 11 9 -2 0 -9 -9 -19 -20 -22 -12 -3 -20 0 -20 7 0 18 14 29
19 15 2 -8 6 -7 12 2z m50 0 c7 11 9 10 9 -3 0 -10 -7 -18 -15 -18 -8 0 -15 8
-14 18 0 12 2 13 6 3 5 -11 7 -11 14 0z m43 -6 c3 -8 1 -15 -4 -15 -6 0 -10 7
-10 15 0 8 2 15 4 15 2 0 6 -7 10 -15z m26 -13 c0 -15 -2 -15 -10 -2 -13 20
-13 33 0 25 6 -3 10 -14 10 -23z m23 13 c4 -8 2 -17 -3 -20 -6 -4 -10 3 -10
14 0 25 6 27 13 6z m27 -7 c0 -18 -2 -20 -9 -8 -6 8 -7 18 -5 22 9 14 14 9 14
-14z m23 7 c4 -8 2 -17 -3 -20 -6 -4 -10 3 -10 14 0 25 6 27 13 6z m27 -7 c0
-18 -2 -20 -9 -8 -6 8 -7 18 -5 22 9 14 14 9 14 -14z m23 7 c4 -8 2 -17 -3
-20 -6 -4 -10 3 -10 14 0 25 6 27 13 6z m27 -7 c0 -18 -2 -20 -9 -8 -6 8 -7
18 -5 22 9 14 14 9 14 -14z m50 2 c0 -9 -8 -16 -20 -16 -12 0 -20 7 -20 16 0
9 8 16 20 16 12 0 20 -7 20 -16z m50 0 c0 -9 -8 -16 -20 -16 -12 0 -20 7 -20
16 0 9 8 16 20 16 12 0 20 -7 20 -16z m36 0 c5 1 10 -2 11 -7 2 -5 -6 -9 -17
-10 -14 -1 -20 4 -20 20 0 16 3 18 9 9 4 -8 12 -13 17 -12z m-1666 -85 c0 -17
-2 -17 -10 -5 -9 13 -11 13 -20 0 -8 -12 -10 -12 -10 5 0 14 6 21 20 21 14 0
20 -7 20 -21z m50 7 c0 -7 -5 -10 -11 -6 -6 3 -15 0 -20 -7 -6 -11 -9 -8 -9 8
0 16 6 21 20 20 11 -1 20 -7 20 -15z m50 1 c0 -6 -9 -11 -20 -10 -11 1 -20 7
-20 14 0 6 9 11 20 10 11 -1 20 -7 20 -14z m50 0 c0 -6 -9 -11 -20 -10 -11 1
-20 7 -20 14 0 6 9 11 20 10 11 -1 20 -7 20 -14z m48 5 c-2 -5 -8 -9 -13 -9
-5 0 -11 4 -13 9 -1 5 4 9 13 9 9 0 14 -4 13 -9z m56 -4 c3 -7 -2 -11 -12 -10
-9 2 -17 7 -19 13 -5 14 25 12 31 -3z m56 1 c0 -7 -8 -12 -17 -11 -24 4 -27
21 -3 23 11 1 20 -4 20 -12z m49 -8 c0 -12 -3 -17 -5 -10 -3 7 -12 9 -20 6 -8
-3 -14 1 -14 9 0 7 9 14 20 15 15 1 20 -4 19 -20z m50 0 c0 -12 -3 -17 -5 -10
-3 7 -12 9 -20 6 -8 -3 -14 1 -14 9 0 7 9 14 20 15 15 1 20 -4 19 -20z m51 -2
c0 -17 -2 -17 -10 -5 -9 13 -11 13 -20 0 -8 -12 -10 -12 -10 5 0 14 6 21 20
21 14 0 20 -7 20 -21z m50 0 c0 -17 -2 -17 -10 -5 -9 13 -11 13 -20 0 -8 -12
-10 -12 -10 5 0 14 6 21 20 21 14 0 20 -7 20 -21z m50 0 c0 -17 -2 -17 -10 -5
-9 13 -11 13 -20 0 -8 -12 -10 -12 -10 5 0 14 6 21 20 21 14 0 20 -7 20 -21z
m50 7 c0 -7 -5 -10 -11 -6 -6 3 -15 0 -20 -7 -6 -11 -9 -8 -9 8 0 16 6 21 20
20 11 -1 20 -7 20 -15z m50 1 c0 -6 -9 -11 -20 -10 -11 1 -20 7 -20 14 0 6 9
11 20 10 11 -1 20 -7 20 -14z m47 3 c-5 -15 -37 -16 -37 -1 0 8 9 13 20 12 11
-1 19 -6 17 -11z m51 2 c-2 -5 -8 -9 -13 -9 -5 0 -11 4 -13 9 -1 5 4 9 13 9 9
0 14 -4 13 -9z m62 -3 c0 -7 -8 -12 -17 -11 -24 4 -27 21 -3 23 11 1 20 -4 20
-12z m50 0 c0 -7 -8 -12 -17 -11 -24 4 -27 21 -3 23 11 1 20 -4 20 -12z m49
-8 c0 -12 -3 -17 -5 -10 -3 7 -12 9 -20 6 -8 -3 -14 1 -14 9 0 7 9 14 20 15
15 1 20 -4 19 -20z m51 -2 c0 -15 -2 -17 -9 -6 -5 7 -14 10 -20 7 -6 -4 -11
-1 -11 6 0 8 9 14 20 14 14 0 20 -7 20 -21z m50 0 c0 -17 -2 -17 -10 -5 -9 13
-11 13 -20 0 -8 -12 -10 -12 -10 5 0 14 6 21 20 21 14 0 20 -7 20 -21z m50 0
c0 -17 -2 -17 -10 -5 -9 13 -11 13 -20 0 -8 -12 -10 -12 -10 5 0 14 6 21 20
21 14 0 20 -7 20 -21z m50 0 c0 -17 -2 -17 -10 -5 -9 13 -11 13 -20 0 -8 -12
-10 -12 -10 5 0 14 6 21 20 21 14 0 20 -7 20 -21z m50 7 c0 -8 -6 -12 -14 -9
-8 3 -17 1 -20 -6 -2 -7 -5 -2 -5 10 -1 16 4 21 19 20 11 -1 20 -8 20 -15z
m50 1 c0 -6 -9 -11 -20 -10 -11 1 -20 7 -20 14 0 6 9 11 20 10 11 -1 20 -7 20
-14z m50 0 c0 -6 -9 -11 -20 -10 -11 1 -20 7 -20 14 0 6 9 11 20 10 11 -1 20
-7 20 -14z m48 5 c-2 -5 -8 -9 -13 -9 -5 0 -11 4 -13 9 -1 5 4 9 13 9 9 0 14
-4 13 -9z m62 -3 c0 -7 -8 -12 -17 -11 -24 4 -27 21 -3 23 11 1 20 -4 20 -12z
m49 -8 c0 -12 -3 -17 -5 -10 -3 7 -12 9 -20 6 -8 -3 -14 1 -14 9 0 7 9 14 20
15 15 1 20 -4 19 -20z m50 0 c0 -12 -3 -17 -5 -10 -3 7 -12 9 -20 6 -8 -3 -14
1 -14 9 0 7 9 14 20 15 15 1 20 -4 19 -20z m51 -2 c0 -17 -2 -17 -10 -5 -9 13
-11 13 -20 0 -8 -12 -10 -12 -10 5 0 14 6 21 20 21 14 0 20 -7 20 -21z m50 0
c0 -17 -2 -17 -10 -5 -9 13 -11 13 -20 0 -8 -12 -10 -12 -10 5 0 14 6 21 20
21 14 0 20 -7 20 -21z m50 0 c0 -17 -2 -17 -10 -5 -9 13 -11 13 -20 0 -8 -12
-10 -12 -10 5 0 14 6 21 20 21 14 0 20 -7 20 -21z m50 0 c0 -17 -2 -17 -10 -5
-9 13 -11 13 -20 0 -8 -12 -10 -12 -10 5 0 14 6 21 20 21 14 0 20 -7 20 -21z
m50 7 c0 -8 -6 -12 -14 -9 -8 3 -17 1 -20 -6 -2 -7 -5 -2 -5 10 -1 16 4 21 19
20 11 -1 20 -8 20 -15z m50 1 c0 -6 -9 -11 -20 -10 -11 1 -20 7 -20 14 0 6 9
11 20 10 11 -1 20 -7 20 -14z m50 -5 c0 -17 -2 -18 -15 -4 -8 8 -15 16 -15 19
0 2 7 4 15 4 8 0 15 -9 15 -19z m-1944 -61 c8 3 14 -1 14 -9 0 -7 -9 -14 -20
-14 -14 0 -20 7 -19 21 0 11 3 15 5 8 3 -7 12 -9 20 -6z m53 -3 c6 4 11 1 11
-6 0 -8 -9 -14 -20 -14 -14 0 -20 7 -20 21 0 15 2 17 9 6 5 -7 14 -10 20 -7z
m54 8 c3 7 6 4 6 -7 1 -14 -5 -21 -19 -21 -13 0 -20 7 -20 19 0 16 3 17 14 8
11 -9 15 -9 19 1z m57 -10 c0 -11 -7 -18 -20 -18 -11 0 -20 7 -20 14 0 8 6 12
15 8 8 -3 15 -1 15 4 0 6 2 10 5 10 3 0 5 -8 5 -18z m50 0 c0 -11 -7 -18 -20
-18 -11 0 -20 7 -20 14 0 8 6 12 15 8 8 -3 15 -1 15 4 0 6 2 10 5 10 3 0 5 -8
5 -18z m50 0 c0 -11 -7 -18 -20 -18 -11 0 -20 7 -20 14 0 8 6 12 15 8 8 -3 15
-1 15 4 0 6 2 10 5 10 3 0 5 -8 5 -18z m233 3 c4 -8 2 -17 -3 -20 -6 -4 -10 3
-10 14 0 25 6 27 13 6z m63 2 c8 3 14 -1 14 -9 0 -7 -9 -14 -20 -14 -14 0 -20
7 -19 21 0 11 3 15 5 8 3 -7 12 -9 20 -6z m57 5 c3 7 6 4 6 -7 1 -14 -5 -21
-19 -21 -13 0 -20 7 -20 19 0 16 3 17 14 8 11 -9 15 -9 19 1z m50 0 c3 7 6 4
6 -7 1 -14 -5 -21 -19 -21 -13 0 -20 7 -20 19 0 16 3 17 14 8 11 -9 15 -9 19
1z m57 -10 c0 -11 -7 -18 -20 -18 -11 0 -20 7 -20 14 0 8 6 12 15 8 8 -3 15
-1 15 4 0 6 2 10 5 10 3 0 5 -8 5 -18z m50 0 c0 -11 -7 -18 -20 -18 -11 0 -20
7 -20 14 0 8 6 12 15 8 8 -3 15 -1 15 4 0 6 2 10 5 10 3 0 5 -8 5 -18z m233 3
c4 -8 2 -17 -3 -20 -6 -4 -10 3 -10 14 0 25 6 27 13 6z m63 2 c8 3 14 -1 14
-9 0 -7 -9 -14 -20 -14 -14 0 -20 7 -19 21 0 11 3 15 5 8 3 -7 12 -9 20 -6z
m50 4 c11 9 14 8 14 -8 0 -12 -7 -19 -20 -19 -14 0 -20 7 -19 21 0 11 3 14 6
7 4 -10 8 -10 19 -1z m57 1 c3 7 6 4 6 -7 1 -14 -5 -21 -19 -21 -13 0 -20 7
-20 19 0 16 3 17 14 8 11 -9 15 -9 19 1z m50 0 c3 7 6 4 6 -7 1 -14 -5 -21
-19 -21 -13 0 -20 7 -20 19 0 16 3 17 14 8 11 -9 15 -9 19 1z m57 -10 c0 -11
-7 -18 -20 -18 -11 0 -20 7 -20 14 0 8 6 12 15 8 8 -3 15 -1 15 4 0 6 2 10 5
10 3 0 5 -8 5 -18z m50 0 c0 -11 -7 -18 -20 -18 -11 0 -20 7 -20 14 0 8 6 12
15 8 8 -3 15 -1 15 4 0 6 2 10 5 10 3 0 5 -8 5 -18z m233 3 c4 -8 2 -17 -3
-20 -6 -4 -10 3 -10 14 0 25 6 27 13 6z m63 6 c11 9 14 8 14 -8 0 -12 -7 -19
-20 -19 -14 0 -20 7 -19 21 0 11 3 14 6 7 4 -10 8 -10 19 -1z m50 0 c11 9 14
8 14 -8 0 -12 -7 -19 -20 -19 -14 0 -20 7 -19 21 0 11 3 14 6 7 4 -10 8 -10
19 -1z m57 1 c3 7 6 4 6 -7 1 -14 -5 -21 -19 -21 -13 0 -20 7 -20 19 0 16 3
17 14 8 11 -9 15 -9 19 1z m50 0 c3 7 6 4 6 -7 1 -14 -5 -21 -19 -21 -13 0
-20 7 -20 19 0 16 3 17 14 8 11 -9 15 -9 19 1z m57 -10 c0 -11 -7 -18 -20 -18
-11 0 -20 7 -20 14 0 8 6 12 15 8 8 -3 15 -1 15 4 0 6 2 10 5 10 3 0 5 -8 5
-18z m50 0 c0 -11 -7 -18 -20 -18 -11 0 -20 7 -20 14 0 8 6 12 15 8 8 -3 15
-1 15 4 0 6 2 10 5 10 3 0 5 -8 5 -18z m-1580 -4 c0 -4 -7 -8 -15 -8 -8 0 -15
4 -15 8 0 5 7 9 15 9 8 0 15 -4 15 -9z m58 -6 c2 -6 -5 -8 -17 -5 -12 3 -21 9
-21 13 0 12 33 5 38 -8z m52 3 c0 -8 -7 -11 -20 -8 -11 3 -20 8 -20 12 0 4 9
7 20 8 11 1 20 -4 20 -12z m49 -3 c0 -11 -2 -13 -6 -4 -4 10 -8 10 -19 1 -11
-9 -14 -8 -14 3 0 7 9 14 20 15 13 1 20 -4 19 -15z m51 3 c0 -8 -2 -15 -4 -15
-2 0 -6 7 -10 15 -3 8 -1 15 4 15 6 0 10 -7 10 -15z m300 4 c0 -4 -9 -9 -20
-12 -13 -3 -20 0 -20 8 0 8 9 13 20 12 11 -1 20 -4 20 -8z m50 -1 c0 -4 -7 -8
-15 -8 -8 0 -15 4 -15 8 0 5 7 9 15 9 8 0 15 -4 15 -9z m58 -6 c2 -6 -5 -8
-17 -5 -12 3 -21 9 -21 13 0 12 33 5 38 -8z m52 3 c0 -8 -7 -11 -20 -8 -11 3
-20 8 -20 12 0 4 9 7 20 8 11 1 20 -4 20 -12z m50 0 c0 -8 -2 -15 -4 -15 -2 0
-6 7 -10 15 -3 8 -1 15 4 15 6 0 10 -7 10 -15z m350 4 c0 -4 -9 -9 -20 -12
-13 -3 -20 0 -20 8 0 8 9 13 20 12 11 -1 20 -4 20 -8z m50 -1 c0 -4 -7 -8 -15
-8 -8 0 -15 4 -15 8 0 5 7 9 15 9 8 0 15 -4 15 -9z m60 -3 c0 -8 -7 -11 -20
-8 -11 3 -20 8 -20 12 0 4 9 7 20 8 11 1 20 -4 20 -12z m50 2 c0 -7 -9 -13
-20 -13 -11 0 -20 5 -20 11 0 6 9 11 20 12 11 1 20 -4 20 -10z m50 -2 c0 -8
-2 -15 -4 -15 -2 0 -6 7 -10 15 -3 8 -1 15 4 15 6 0 10 -7 10 -15z m350 4 c0
-4 -9 -9 -20 -12 -13 -3 -20 0 -20 8 0 8 9 13 20 12 11 -1 20 -4 20 -8z m50
-1 c0 -4 -7 -8 -15 -8 -8 0 -15 4 -15 8 0 5 7 9 15 9 8 0 15 -4 15 -9z m40 -3
c11 -13 10 -14 -4 -9 -9 3 -16 10 -16 15 0 13 6 11 20 -6z m-2196 -85 c-6 -6
-10 -3 -10 10 0 13 4 16 10 10 7 -7 7 -13 0 -20z m49 15 c4 -8 2 -17 -3 -20
-6 -4 -10 3 -10 14 0 25 6 27 13 6z m27 -7 c0 -19 -2 -20 -10 -8 -13 19 -13
30 0 30 6 0 10 -10 10 -22z m23 7 c4 -8 2 -17 -3 -20 -6 -4 -10 3 -10 14 0 25
6 27 13 6z m27 -7 c0 -18 -2 -20 -9 -8 -6 8 -7 18 -5 22 9 14 14 9 14 -14z
m49 -3 c0 -11 -3 -14 -6 -7 -4 10 -8 10 -19 1 -11 -9 -14 -8 -14 8 0 12 7 19
20 19 14 0 20 -7 19 -21z m50 0 c0 -11 -3 -14 -6 -7 -4 10 -8 10 -19 1 -11 -9
-14 -8 -14 8 0 12 7 19 20 19 14 0 20 -7 19 -21z m51 2 c0 -16 -3 -17 -14 -8
-11 9 -15 9 -19 -1 -3 -7 -6 -4 -6 7 -1 14 5 21 19 21 13 0 20 -7 20 -19z m23
-2 c-7 -21 -13 -19 -13 6 0 11 4 18 10 14 5 -3 7 -12 3 -20z m27 4 c0 -11 -4
-18 -10 -14 -5 3 -7 12 -3 20 7 21 13 19 13 -6z m23 -4 c-7 -21 -13 -19 -13 6
0 11 4 18 10 14 5 -3 7 -12 3 -20z m27 4 c0 -11 -4 -18 -10 -14 -5 3 -7 12 -3
20 7 21 13 19 13 -6z m30 14 c0 -5 -5 -15 -10 -23 -8 -12 -10 -11 -10 8 0 12
5 22 10 22 6 0 10 -3 10 -7z m20 -14 c0 -11 -4 -18 -10 -14 -5 3 -7 12 -3 20
7 21 13 19 13 -6z m42 12 c8 11 9 11 6 1 -4 -16 -22 -18 -24 -2 -2 7 -1 6 3
-1 4 -8 8 -7 15 2z m48 -1 c0 13 1 13 10 0 5 -8 10 -19 10 -25 0 -5 -4 -4 -9
3 -4 8 -12 13 -17 12 -5 -1 -10 4 -12 12 -2 9 0 8 7 -2 10 -13 11 -13 11 0z
m44 -6 c3 -8 2 -12 -4 -9 -6 3 -10 10 -10 16 0 14 7 11 14 -7z m26 -6 c0 -19
-2 -20 -10 -8 -13 19 -13 30 0 30 6 0 10 -10 10 -22z m23 7 c4 -8 2 -17 -3
-20 -6 -4 -10 3 -10 14 0 25 6 27 13 6z m27 -7 c0 -19 -2 -20 -10 -8 -13 19
-13 30 0 30 6 0 10 -10 10 -22z m23 7 c4 -8 2 -17 -3 -20 -6 -4 -10 3 -10 14
0 25 6 27 13 6z m27 -7 c0 -18 -2 -20 -9 -8 -6 8 -7 18 -5 22 9 14 14 9 14
-14z m49 -3 c0 -11 -3 -14 -6 -7 -4 10 -8 10 -19 1 -11 -9 -14 -8 -14 8 0 12
7 19 20 19 14 0 20 -7 19 -21z m50 0 c0 -11 -3 -14 -6 -7 -4 10 -8 10 -19 1
-11 -9 -14 -8 -14 8 0 12 7 19 20 19 14 0 20 -7 19 -21z m51 2 c0 -16 -3 -17
-14 -8 -11 9 -15 9 -19 -1 -3 -7 -6 -4 -6 7 -1 14 5 21 19 21 13 0 20 -7 20
-19z m23 -2 c-7 -21 -13 -19 -13 6 0 11 4 18 10 14 5 -3 7 -12 3 -20z m27 4
c0 -11 -4 -18 -10 -14 -5 3 -7 12 -3 20 7 21 13 19 13 -6z m30 14 c0 -5 -5
-15 -10 -23 -8 -12 -10 -11 -10 8 0 12 5 22 10 22 6 0 10 -3 10 -7z m20 -14
c0 -11 -4 -18 -10 -14 -5 3 -7 12 -3 20 7 21 13 19 13 -6z m30 14 c0 -5 -5
-15 -10 -23 -8 -12 -10 -11 -10 8 0 12 5 22 10 22 6 0 10 -3 10 -7z m20 -8 c0
-8 -4 -15 -10 -15 -5 0 -7 7 -4 15 4 8 8 15 10 15 2 0 4 -7 4 -15z m42 6 c8
11 9 11 6 1 -4 -16 -22 -18 -24 -2 -2 7 -1 6 3 -1 4 -8 8 -7 15 2z m48 -3 c0
7 5 10 10 7 6 -3 10 -14 10 -23 0 -13 -2 -14 -9 -4 -4 8 -12 13 -17 12 -5 -1
-10 4 -12 12 -2 9 0 8 7 -2 8 -11 11 -12 11 -2z m44 -3 c3 -8 1 -15 -4 -15 -6
0 -10 7 -10 15 0 8 2 15 4 15 2 0 6 -7 10 -15z m26 -7 c0 -19 -2 -20 -10 -8
-13 19 -13 30 0 30 6 0 10 -10 10 -22z m23 7 c4 -8 2 -17 -3 -20 -6 -4 -10 3
-10 14 0 25 6 27 13 6z m27 -7 c0 -18 -2 -20 -9 -8 -6 8 -7 18 -5 22 9 14 14
9 14 -14z m23 7 c4 -8 2 -17 -3 -20 -6 -4 -10 3 -10 14 0 25 6 27 13 6z m27
-7 c0 -18 -2 -20 -9 -8 -6 8 -7 18 -5 22 9 14 14 9 14 -14z m49 -3 c0 -11 -3
-14 -6 -7 -4 10 -8 10 -19 1 -11 -9 -14 -8 -14 8 0 12 7 19 20 19 14 0 20 -7
19 -21z m51 5 c0 -9 -8 -16 -20 -16 -12 0 -20 7 -20 16 0 9 8 16 20 16 12 0
20 -7 20 -16z m50 -3 c0 -16 -3 -17 -14 -8 -11 9 -15 9 -19 -1 -3 -7 -6 -4 -6
7 -1 14 5 21 19 21 13 0 20 -7 20 -19z m23 -2 c-7 -21 -13 -19 -13 6 0 11 4
18 10 14 5 -3 7 -12 3 -20z m27 4 c0 -11 -4 -18 -10 -14 -5 3 -7 12 -3 20 7
21 13 19 13 -6z m30 14 c0 -5 -5 -15 -10 -23 -8 -12 -10 -11 -10 8 0 12 5 22
10 22 6 0 10 -3 10 -7z m20 -14 c0 -11 -4 -18 -10 -14 -5 3 -7 12 -3 20 7 21
13 19 13 -6z m30 14 c0 -5 -5 -15 -10 -23 -8 -12 -10 -11 -10 8 0 12 5 22 10
22 6 0 10 -3 10 -7z m20 -8 c0 -8 -4 -15 -10 -15 -5 0 -7 7 -4 15 4 8 8 15 10
15 2 0 4 -7 4 -15z m42 6 c8 11 9 11 6 1 -4 -16 -22 -18 -24 -2 -2 7 -1 6 3
-1 4 -8 8 -7 15 2z m42 -7 c3 -8 2 -12 -4 -9 -6 3 -10 10 -10 16 0 14 7 11 14
-7z m26 -6 c0 -19 -2 -20 -10 -8 -13 19 -13 30 0 30 6 0 10 -10 10 -22z m24 7
c3 -8 1 -15 -4 -15 -6 0 -10 7 -10 15 0 8 2 15 4 15 2 0 6 -7 10 -15z m26 -7
c0 -19 -2 -20 -10 -8 -13 19 -13 30 0 30 6 0 10 -10 10 -22z m23 7 c4 -8 2
-17 -3 -20 -6 -4 -10 3 -10 14 0 25 6 27 13 6z m27 -7 c0 -18 -2 -20 -9 -8 -6
8 -7 18 -5 22 9 14 14 9 14 -14z m49 -3 c0 -11 -3 -14 -6 -7 -4 10 -8 10 -19
1 -11 -9 -14 -8 -14 8 0 12 7 19 20 19 14 0 20 -7 19 -21z m50 0 c0 -11 -3
-14 -6 -7 -4 10 -8 10 -19 1 -11 -9 -14 -8 -14 8 0 12 7 19 20 19 14 0 20 -7
19 -21z m51 2 c0 -16 -3 -17 -14 -8 -11 9 -15 9 -19 -1 -3 -7 -6 -4 -6 7 -1
14 5 21 19 21 13 0 20 -7 20 -19z m23 -2 c-7 -21 -13 -19 -13 6 0 11 4 18 10
14 5 -3 7 -12 3 -20z m27 4 c0 -11 -4 -18 -10 -14 -5 3 -7 12 -3 20 7 21 13
19 13 -6z m23 -4 c-7 -21 -13 -19 -13 6 0 11 4 18 10 14 5 -3 7 -12 3 -20z
m27 4 c0 -11 -4 -18 -10 -14 -5 3 -7 12 -3 20 7 21 13 19 13 -6z m30 14 c0 -5
-5 -15 -10 -23 -8 -12 -10 -11 -10 8 0 12 5 22 10 22 6 0 10 -3 10 -7z m20
-14 c0 -11 -4 -18 -10 -14 -5 3 -7 12 -3 20 7 21 13 19 13 -6z m30 14 c0 -5
-5 -15 -10 -23 -8 -12 -10 -11 -10 8 0 12 5 22 10 22 6 0 10 -3 10 -7z m20 -8
c0 -8 -4 -15 -10 -15 -5 0 -7 7 -4 15 4 8 8 15 10 15 2 0 4 -7 4 -15z m42 6
c8 11 9 11 6 1 -4 -16 -22 -18 -24 -2 -2 7 -1 6 3 -1 4 -8 8 -7 15 2z m42 -7
c3 -8 2 -12 -4 -9 -6 3 -10 10 -10 16 0 14 7 11 14 -7z m26 -6 c0 -19 -2 -20
-10 -8 -13 19 -13 30 0 30 6 0 10 -10 10 -22z m23 7 c4 -8 2 -17 -3 -20 -6 -4
-10 3 -10 14 0 25 6 27 13 6z m27 -7 c0 -19 -2 -20 -10 -8 -13 19 -13 30 0 30
6 0 10 -10 10 -22z m36 0 c13 -16 14 -19 2 -10 -13 10 -17 10 -21 0 -3 -7 -6
-3 -6 10 -1 27 1 27 25 0z m-2336 -70 c0 -4 -7 -8 -15 -8 -8 0 -15 4 -15 8 0
5 7 9 15 9 8 0 15 -4 15 -9z m60 -3 c0 -7 -8 -12 -17 -11 -24 4 -27 21 -3 23
11 1 20 -4 20 -12z m50 2 c0 -7 -9 -13 -20 -13 -11 0 -20 5 -20 11 0 6 9 11
20 12 11 1 20 -4 20 -10z m50 0 c0 -7 -9 -13 -20 -13 -11 0 -20 5 -20 11 0 6
9 11 20 12 11 1 20 -4 20 -10z m50 -2 c0 -6 -9 -11 -20 -11 -11 0 -20 5 -20
11 0 6 9 11 20 11 11 0 20 -5 20 -11z m50 0 c0 -6 -9 -11 -20 -11 -11 0 -20 5
-20 11 0 6 9 11 20 11 11 0 20 -5 20 -11z m50 -3 c0 -7 -5 -10 -11 -6 -6 3
-15 0 -20 -7 -6 -11 -9 -8 -9 8 0 16 6 21 20 20 11 -1 20 -7 20 -15z m50 3 c0
-6 -9 -11 -20 -11 -11 0 -20 6 -20 13 0 6 9 11 20 10 11 -1 20 -6 20 -12z m50
0 c0 -6 -9 -11 -20 -11 -11 0 -20 6 -20 13 0 6 9 11 20 10 11 -1 20 -6 20 -12z
m50 0 c0 -6 -9 -11 -20 -11 -11 0 -20 6 -20 13 0 6 9 11 20 10 11 -1 20 -6 20
-12z m50 3 c0 -11 -28 -10 -35 1 -3 6 4 9 15 8 11 -1 20 -5 20 -9z m60 3 c3
-1 -2 -5 -10 -10 -15 -10 -30 -6 -30 9 0 4 8 7 18 5 9 -2 19 -4 22 -4z m50 -6
c0 -7 -8 -12 -17 -11 -24 4 -27 21 -3 23 11 1 20 -4 20 -12z m50 2 c0 -7 -9
-13 -20 -13 -11 0 -20 5 -20 11 0 6 9 11 20 12 11 1 20 -4 20 -10z m50 -10 c0
-16 -3 -19 -9 -8 -5 7 -14 10 -20 7 -6 -4 -11 -1 -11 6 0 8 9 14 20 15 14 1
20 -4 20 -20z m50 8 c0 -6 -9 -11 -20 -11 -11 0 -20 5 -20 11 0 6 9 11 20 11
11 0 20 -5 20 -11z m50 -3 c0 -7 -5 -10 -11 -6 -6 3 -15 0 -20 -7 -7 -11 -9
-9 -9 6 0 14 6 21 20 21 11 0 20 -6 20 -14z m50 3 c0 -6 -9 -11 -20 -11 -11 0
-20 6 -20 13 0 6 9 11 20 10 11 -1 20 -6 20 -12z m50 0 c0 -6 -9 -11 -20 -11
-11 0 -20 6 -20 13 0 6 9 11 20 10 11 -1 20 -6 20 -12z m50 0 c0 -6 -9 -11
-20 -11 -11 0 -20 6 -20 13 0 6 9 11 20 10 11 -1 20 -6 20 -12z m50 4 c0 -4
-9 -9 -20 -12 -13 -3 -20 0 -20 8 0 8 9 13 20 12 11 -1 20 -4 20 -8z m50 -1
c0 -4 -7 -8 -15 -8 -8 0 -15 4 -15 8 0 5 7 9 15 9 8 0 15 -4 15 -9z m60 -3 c0
-7 -8 -12 -17 -11 -24 4 -27 21 -3 23 11 1 20 -4 20 -12z m50 0 c0 -7 -8 -12
-17 -11 -24 4 -27 21 -3 23 11 1 20 -4 20 -12z m50 -8 c0 -16 -3 -19 -9 -8 -5
7 -14 10 -20 7 -6 -4 -11 -1 -11 6 0 8 9 14 20 15 14 1 20 -4 20 -20z m50 0
c0 -16 -3 -19 -9 -8 -5 7 -14 10 -20 7 -6 -4 -11 -1 -11 6 0 8 9 14 20 15 14
1 20 -4 20 -20z m50 8 c0 -6 -9 -11 -20 -11 -11 0 -20 5 -20 11 0 6 9 11 20
11 11 0 20 -5 20 -11z m50 -3 c0 -7 -5 -10 -11 -6 -6 3 -15 0 -20 -7 -7 -11
-9 -9 -9 6 0 14 6 21 20 21 11 0 20 -6 20 -14z m50 3 c0 -6 -9 -11 -20 -11
-11 0 -20 6 -20 13 0 6 9 11 20 10 11 -1 20 -6 20 -12z m50 0 c0 -6 -9 -11
-20 -11 -11 0 -20 6 -20 13 0 6 9 11 20 10 11 -1 20 -6 20 -12z m50 0 c0 -6
-9 -11 -20 -11 -11 0 -20 6 -20 13 0 6 9 11 20 10 11 -1 20 -6 20 -12z m50 4
c0 -4 -9 -9 -20 -12 -13 -3 -20 0 -20 8 0 8 9 13 20 12 11 -1 20 -4 20 -8z
m50 -1 c0 -4 -7 -8 -15 -8 -8 0 -15 4 -15 8 0 5 7 9 15 9 8 0 15 -4 15 -9z
m60 -3 c0 -7 -8 -12 -17 -11 -24 4 -27 21 -3 23 11 1 20 -4 20 -12z m50 2 c0
-7 -9 -13 -20 -14 -11 -1 -20 4 -20 10 0 7 9 13 20 14 11 1 20 -4 20 -10z m50
-10 c0 -16 -3 -19 -9 -8 -5 7 -14 10 -20 7 -6 -4 -11 -1 -11 6 0 8 9 14 20 15
14 1 20 -4 20 -20z m50 0 c0 -16 -3 -19 -9 -8 -5 7 -14 10 -20 7 -6 -4 -11 -1
-11 6 0 8 9 14 20 15 14 1 20 -4 20 -20z m50 8 c0 -6 -9 -11 -20 -11 -11 0
-20 5 -20 11 0 6 9 11 20 11 11 0 20 -5 20 -11z m50 -3 c0 -7 -5 -10 -11 -6
-6 3 -15 0 -20 -7 -7 -11 -9 -9 -9 6 0 14 6 21 20 21 11 0 20 -6 20 -14z m50
3 c0 -6 -9 -11 -20 -11 -11 0 -20 6 -20 13 0 6 9 11 20 10 11 -1 20 -6 20 -12z
m50 0 c0 -6 -9 -11 -20 -11 -11 0 -20 6 -20 13 0 6 9 11 20 10 11 -1 20 -6 20
-12z m50 0 c0 -6 -9 -11 -20 -11 -11 0 -20 6 -20 13 0 6 9 11 20 10 11 -1 20
-6 20 -12z m50 4 c0 -4 -9 -9 -20 -12 -13 -3 -20 0 -20 8 0 8 9 13 20 12 11
-1 20 -4 20 -8z m50 -1 c0 -4 -7 -8 -15 -8 -8 0 -15 4 -15 8 0 5 7 9 15 9 8 0
15 -4 15 -9z m60 -3 c0 -7 -8 -12 -17 -11 -24 4 -27 21 -3 23 11 1 20 -4 20
-12z m50 2 c0 -7 -9 -13 -20 -14 -11 -1 -20 4 -20 10 0 7 9 13 20 14 11 1 20
-4 20 -10z m50 -10 c0 -16 -3 -19 -9 -8 -5 7 -14 10 -20 7 -6 -4 -11 -1 -11 6
0 8 9 14 20 15 14 1 20 -4 20 -20z m50 7 c0 -10 -6 -14 -14 -11 -8 3 -17 1
-20 -6 -2 -7 -5 -5 -5 5 -1 9 7 19 17 21 9 3 18 5 20 6 1 0 2 -6 2 -15z
m-2450 -69 c0 -8 -7 -15 -15 -15 -8 0 -15 5 -15 11 0 5 5 7 10 4 6 -3 10 -1
10 4 0 6 2 11 5 11 3 0 5 -7 5 -15z m41 1 c5 3 9 0 9 -5 0 -6 -7 -11 -15 -11
-8 0 -15 8 -14 18 0 10 3 12 6 4 2 -6 9 -10 14 -6z m55 1 c9 3 14 -1 13 -13 0
-11 -3 -14 -5 -7 -3 7 -12 9 -20 6 -9 -3 -14 1 -13 13 0 11 3 14 5 7 3 -7 12
-9 20 -6z m37 -2 c4 -8 2 -17 -3 -20 -6 -4 -10 3 -10 14 0 25 6 27 13 6z m50
0 c4 -8 2 -17 -3 -20 -6 -4 -10 3 -10 14 0 25 6 27 13 6z m27 -7 c0 -18 -2
-20 -9 -8 -6 8 -7 18 -5 22 9 14 14 9 14 -14z m36 13 c11 9 14 8 14 -8 0 -12
-7 -19 -20 -19 -14 0 -20 7 -19 21 0 11 3 14 6 7 4 -10 8 -10 19 -1z m64 -11
c0 -9 -8 -16 -20 -16 -12 0 -20 7 -20 16 0 9 8 16 20 16 12 0 20 -7 20 -16z
m43 12 c3 7 6 4 6 -7 1 -14 -5 -21 -19 -21 -13 0 -20 7 -20 19 0 16 3 17 14 8
11 -9 15 -9 19 1z m50 0 c3 7 6 4 6 -7 1 -14 -5 -21 -19 -21 -13 0 -20 7 -20
19 0 16 3 17 14 8 11 -9 15 -9 19 1z m50 0 c3 7 6 4 6 -7 1 -14 -5 -21 -19
-21 -13 0 -20 7 -20 19 0 16 3 17 14 8 11 -9 15 -9 19 1z m57 -6 c0 -7 -9 -16
-20 -19 -13 -3 -20 0 -20 10 0 9 6 13 15 9 8 -3 15 -1 15 4 0 6 2 10 5 10 3 0
5 -6 5 -14z m50 -1 c0 -8 -7 -15 -15 -15 -8 0 -15 5 -15 11 0 5 5 7 10 4 6 -3
10 -1 10 4 0 6 2 11 5 11 3 0 5 -7 5 -15z m46 -5 c5 1 10 -3 12 -8 2 -6 -6 -8
-17 -5 -12 3 -21 13 -21 22 0 12 2 13 9 3 4 -8 12 -13 17 -12z m50 7 c9 3 14
-1 13 -13 0 -11 -3 -14 -5 -7 -3 7 -12 9 -20 6 -9 -3 -14 1 -13 13 0 11 3 14
5 7 3 -7 12 -9 20 -6z m37 -2 c4 -8 2 -17 -3 -20 -6 -4 -10 3 -10 14 0 25 6
27 13 6z m27 -7 c0 -18 -2 -20 -9 -8 -6 8 -7 18 -5 22 9 14 14 9 14 -14z m23
7 c4 -8 2 -17 -3 -20 -6 -4 -10 3 -10 14 0 25 6 27 13 6z m27 -7 c0 -18 -2
-20 -9 -8 -6 8 -7 18 -5 22 9 14 14 9 14 -14z m36 13 c11 9 14 8 14 -8 0 -12
-7 -19 -20 -19 -14 0 -20 7 -19 21 0 11 3 14 6 7 4 -10 8 -10 19 -1z m57 1 c3
7 6 4 6 -7 1 -14 -5 -21 -19 -21 -13 0 -20 7 -20 19 0 16 3 17 14 8 11 -9 15
-9 19 1z m50 0 c3 7 6 4 6 -7 1 -14 -5 -21 -19 -21 -13 0 -20 7 -20 19 0 16 3
17 14 8 11 -9 15 -9 19 1z m50 0 c3 7 6 4 6 -7 1 -14 -5 -21 -19 -21 -13 0
-20 7 -20 19 0 16 3 17 14 8 11 -9 15 -9 19 1z m57 -10 c0 -11 -7 -18 -20 -18
-11 0 -20 7 -20 14 0 8 6 12 15 8 8 -3 15 -1 15 4 0 6 2 10 5 10 3 0 5 -8 5
-18z m50 4 c0 -7 -9 -16 -20 -19 -13 -3 -20 0 -20 10 0 9 6 13 15 9 8 -3 15
-1 15 4 0 6 2 10 5 10 3 0 5 -6 5 -14z m50 -1 c0 -8 -7 -15 -15 -15 -8 0 -15
5 -15 11 0 5 5 7 10 4 6 -3 10 -1 10 4 0 6 2 11 5 11 3 0 5 -7 5 -15z m46 2
c8 3 14 -1 14 -10 0 -10 -7 -13 -20 -10 -11 3 -20 13 -19 22 0 9 3 11 5 4 3
-7 12 -9 20 -6z m50 0 c9 3 14 -1 13 -13 0 -11 -3 -14 -5 -7 -3 7 -12 9 -20 6
-9 -3 -14 1 -13 13 0 11 3 14 5 7 3 -7 12 -9 20 -6z m37 -2 c4 -8 2 -17 -3
-20 -6 -4 -10 3 -10 14 0 25 6 27 13 6z m27 -7 c0 -18 -2 -20 -9 -8 -6 8 -7
18 -5 22 9 14 14 9 14 -14z m23 7 c4 -8 2 -17 -3 -20 -6 -4 -10 3 -10 14 0 25
6 27 13 6z m27 -7 c0 -18 -2 -20 -9 -8 -6 8 -7 18 -5 22 9 14 14 9 14 -14z
m36 13 c11 9 14 8 14 -8 0 -12 -7 -19 -20 -19 -14 0 -20 7 -19 21 0 11 3 14 6
7 4 -10 8 -10 19 -1z m57 1 c3 7 6 4 6 -7 1 -14 -5 -21 -19 -21 -13 0 -20 7
-20 19 0 16 3 17 14 8 11 -9 15 -9 19 1z m50 0 c3 7 6 4 6 -7 1 -14 -5 -21
-19 -21 -13 0 -20 7 -20 19 0 16 3 17 14 8 11 -9 15 -9 19 1z m50 0 c3 7 6 4
6 -7 1 -14 -5 -21 -19 -21 -13 0 -20 7 -20 19 0 16 3 17 14 8 11 -9 15 -9 19
1z m57 -10 c0 -11 -7 -18 -20 -18 -11 0 -20 7 -20 14 0 8 6 12 15 8 8 -3 15
-1 15 4 0 6 2 10 5 10 3 0 5 -8 5 -18z m50 4 c0 -7 -9 -16 -20 -19 -13 -3 -20
0 -20 10 0 9 6 13 15 9 8 -3 15 -1 15 4 0 6 2 10 5 10 3 0 5 -6 5 -14z m41 5
c7 11 9 10 9 -3 0 -10 -7 -18 -15 -18 -8 0 -15 8 -14 18 0 12 2 13 6 3 5 -11
7 -11 14 0z m55 -4 c8 3 14 -1 14 -10 0 -10 -7 -13 -20 -10 -11 3 -20 13 -19
22 0 9 3 11 5 4 3 -7 12 -9 20 -6z m37 -2 c4 -8 2 -17 -3 -20 -6 -4 -10 3 -10
14 0 25 6 27 13 6z m50 0 c4 -8 2 -17 -3 -20 -6 -4 -10 3 -10 14 0 25 6 27 13
6z m27 -7 c0 -18 -2 -20 -9 -8 -6 8 -7 18 -5 22 9 14 14 9 14 -14z m23 7 c4
-8 2 -17 -3 -20 -6 -4 -10 3 -10 14 0 25 6 27 13 6z m27 -7 c0 -18 -2 -20 -9
-8 -6 8 -7 18 -5 22 9 14 14 9 14 -14z m50 2 c0 -9 -8 -16 -20 -16 -12 0 -20
7 -20 16 0 9 8 16 20 16 12 0 20 -7 20 -16z m43 12 c3 7 6 4 6 -7 1 -14 -5
-21 -19 -21 -13 0 -20 7 -20 19 0 16 3 17 14 8 11 -9 15 -9 19 1z m50 0 c3 7
6 4 6 -7 1 -14 -5 -21 -19 -21 -13 0 -20 7 -20 19 0 16 3 17 14 8 11 -9 15 -9
19 1z m50 0 c3 7 6 4 6 -7 1 -14 -5 -21 -19 -21 -13 0 -20 7 -20 19 0 16 3 17
14 8 11 -9 15 -9 19 1z m57 -10 c0 -11 -7 -18 -20 -18 -11 0 -20 7 -20 14 0 8
6 12 15 8 8 -3 15 -1 15 4 0 6 2 10 5 10 3 0 5 -8 5 -18z m50 4 c0 -7 -9 -16
-20 -19 -13 -3 -20 0 -20 10 0 9 6 13 15 9 8 -3 15 -1 15 4 0 6 2 10 5 10 3 0
5 -6 5 -14z m41 5 c7 11 9 10 9 -3 0 -10 -7 -18 -15 -18 -8 0 -15 8 -14 18 0
12 2 13 6 3 5 -11 7 -11 14 0z m55 -4 c9 3 14 -1 13 -13 0 -11 -3 -14 -5 -7
-3 7 -12 9 -20 6 -9 -3 -14 1 -13 13 0 11 3 14 5 7 3 -7 12 -9 20 -6z m37 -2
c4 -8 2 -17 -3 -20 -6 -4 -10 3 -10 14 0 25 6 27 13 6z m50 0 c4 -8 2 -17 -3
-20 -6 -4 -10 3 -10 14 0 25 6 27 13 6z m27 -7 c0 -18 -2 -20 -9 -8 -6 8 -7
18 -5 22 9 14 14 9 14 -14z m23 7 c4 -8 2 -17 -3 -20 -6 -4 -10 3 -10 14 0 25
6 27 13 6z m27 -7 c0 -18 -2 -20 -9 -8 -6 8 -7 18 -5 22 9 14 14 9 14 -14z
m-2290 -3 c0 -8 -2 -15 -4 -15 -2 0 -6 7 -10 15 -3 8 -1 15 4 15 6 0 10 -7 10
-15z m1630 0 c0 -8 -2 -15 -4 -15 -2 0 -6 7 -10 15 -3 8 -1 15 4 15 6 0 10 -7
10 -15z m560 0 c0 -8 -2 -15 -4 -15 -2 0 -6 7 -10 15 -3 8 -1 15 4 15 6 0 10
-7 10 -15z m150 -2 c0 -7 -9 -13 -20 -13 -11 0 -20 6 -20 13 0 7 9 13 20 13
11 0 20 -6 20 -13z m-2559 -62 c6 10 9 7 9 -10 0 -20 -2 -21 -15 -11 -8 7 -15
18 -14 24 0 6 3 5 6 -3 5 -11 7 -11 14 0z m56 -5 c-5 -15 -34 -15 -34 -1 0 8
9 13 19 12 10 -1 17 -6 15 -11z m45 5 c8 11 9 11 6 1 -4 -16 -22 -18 -24 -2
-2 7 -1 6 3 -1 4 -8 8 -7 15 2z m42 -7 c3 -8 2 -12 -4 -9 -6 3 -10 10 -10 16
0 14 7 11 14 -7z m26 -6 c0 -19 -2 -20 -10 -8 -13 19 -13 30 0 30 6 0 10 -10
10 -22z m24 7 c3 -8 1 -15 -4 -15 -6 0 -10 7 -10 15 0 8 2 15 4 15 2 0 6 -7
10 -15z m26 -7 c0 -19 -2 -20 -10 -8 -13 19 -13 30 0 30 6 0 10 -10 10 -22z
m49 -3 c0 -11 -3 -14 -6 -7 -4 10 -8 10 -19 1 -11 -9 -14 -8 -14 8 0 12 7 19
20 19 14 0 20 -7 19 -21z m50 0 c0 -11 -3 -14 -6 -7 -4 10 -8 10 -19 1 -11 -9
-14 -8 -14 8 0 12 7 19 20 19 14 0 20 -7 19 -21z m51 0 c0 -17 -2 -17 -10 -5
-9 13 -11 13 -20 0 -8 -12 -10 -12 -10 5 0 14 6 21 20 21 14 0 20 -7 20 -21z
m50 0 c0 -17 -2 -17 -10 -5 -9 13 -11 13 -20 0 -8 -12 -10 -12 -10 5 0 14 6
21 20 21 14 0 20 -7 20 -21z m50 2 c0 -16 -3 -17 -14 -8 -11 9 -15 9 -19 -1
-3 -7 -6 -4 -6 7 -1 14 5 21 19 21 13 0 20 -7 20 -19z m50 0 c0 -16 -3 -17
-14 -8 -11 9 -15 9 -19 -1 -3 -7 -6 -3 -6 9 -1 16 4 21 19 20 12 -1 20 -8 20
-20z m50 5 c0 -8 -6 -12 -14 -9 -8 3 -17 1 -20 -6 -2 -7 -5 -2 -5 10 -1 16 4
21 19 20 11 -1 20 -8 20 -15z m50 6 c0 -15 -18 -17 -30 -3 -9 11 -8 14 9 12
12 -1 21 -5 21 -9z m40 2 c5 9 9 8 13 -3 4 -10 0 -14 -11 -13 -9 2 -17 8 -18
15 -2 8 -1 8 3 0 4 -8 7 -8 13 1z m44 -6 c3 -8 2 -12 -4 -9 -6 3 -10 10 -10
16 0 14 7 11 14 -7z m26 -6 c0 -19 -2 -20 -10 -8 -13 19 -13 30 0 30 6 0 10
-10 10 -22z m24 7 c3 -8 1 -15 -4 -15 -6 0 -10 7 -10 15 0 8 2 15 4 15 2 0 6
-7 10 -15z m26 -7 c0 -19 -2 -20 -10 -8 -13 19 -13 30 0 30 6 0 10 -10 10 -22z
m49 -3 c0 -11 -3 -14 -6 -7 -4 10 -8 10 -19 1 -11 -9 -14 -8 -14 8 0 12 7 19
20 19 14 0 20 -7 19 -21z m50 0 c0 -11 -3 -14 -6 -7 -4 10 -8 10 -19 1 -11 -9
-14 -8 -14 8 0 12 7 19 20 19 14 0 20 -7 19 -21z m51 0 c0 -17 -2 -17 -10 -5
-9 13 -11 13 -20 0 -8 -12 -10 -12 -10 5 0 14 6 21 20 21 14 0 20 -7 20 -21z
m50 0 c0 -17 -2 -17 -10 -5 -9 13 -11 13 -20 0 -8 -12 -10 -12 -10 5 0 14 6
21 20 21 14 0 20 -7 20 -21z m50 2 c0 -16 -3 -17 -14 -8 -11 9 -15 9 -19 -1
-3 -7 -6 -4 -6 7 -1 14 5 21 19 21 13 0 20 -7 20 -19z m50 0 c0 -16 -3 -17
-14 -8 -11 9 -15 9 -19 -1 -3 -7 -6 -3 -6 9 -1 16 4 21 19 20 12 -1 20 -8 20
-20z m50 6 c0 -6 -9 -11 -20 -10 -11 1 -20 7 -20 14 0 6 9 11 20 10 11 -1 20
-7 20 -14z m42 8 c8 11 9 11 6 1 -4 -16 -22 -18 -24 -2 -2 7 -1 6 3 -1 4 -8 8
-7 15 2z m48 -3 c0 7 5 10 10 7 16 -10 12 -23 -7 -21 -9 2 -19 9 -21 17 -3 11
-1 11 7 -1 8 -11 11 -12 11 -2z m44 -4 c3 -8 2 -12 -4 -9 -6 3 -10 10 -10 16
0 14 7 11 14 -7z m26 -6 c0 -19 -2 -20 -10 -8 -13 19 -13 30 0 30 6 0 10 -10
10 -22z m24 7 c3 -8 1 -15 -4 -15 -6 0 -10 7 -10 15 0 8 2 15 4 15 2 0 6 -7
10 -15z m26 -7 c0 -19 -2 -20 -10 -8 -13 19 -13 30 0 30 6 0 10 -10 10 -22z
m49 -3 c0 -11 -3 -14 -6 -7 -4 10 -8 10 -19 1 -11 -9 -14 -8 -14 8 0 12 7 19
20 19 14 0 20 -7 19 -21z m50 0 c0 -11 -3 -14 -6 -7 -4 10 -8 10 -19 1 -11 -9
-14 -8 -14 8 0 12 7 19 20 19 14 0 20 -7 19 -21z m51 0 c0 -17 -2 -17 -10 -5
-9 13 -11 13 -20 0 -8 -12 -10 -12 -10 5 0 14 6 21 20 21 14 0 20 -7 20 -21z
m50 2 c0 -16 -3 -17 -14 -8 -11 9 -15 9 -19 -1 -3 -7 -6 -4 -6 7 -1 14 5 21
19 21 13 0 20 -7 20 -19z m50 0 c0 -16 -3 -17 -14 -8 -11 9 -15 9 -19 -1 -3
-7 -6 -4 -6 7 -1 14 5 21 19 21 13 0 20 -7 20 -19z m50 0 c0 -16 -3 -17 -14
-8 -11 9 -15 9 -19 -1 -3 -7 -6 -3 -6 9 -1 16 4 21 19 20 12 -1 20 -8 20 -20z
m50 6 c0 -6 -9 -11 -20 -10 -11 1 -20 7 -20 14 0 6 9 11 20 10 11 -1 20 -7 20
-14z m48 5 c-2 -5 -8 -9 -13 -9 -5 0 -11 4 -13 9 -1 5 4 9 13 9 9 0 14 -4 13
-9z m36 -4 c3 -8 2 -12 -4 -9 -6 3 -10 10 -10 16 0 14 7 11 14 -7z m26 -6 c0
-19 -2 -20 -10 -8 -13 19 -13 30 0 30 6 0 10 -10 10 -22z m24 7 c3 -8 1 -15
-4 -15 -6 0 -10 7 -10 15 0 8 2 15 4 15 2 0 6 -7 10 -15z m26 -7 c0 -19 -2
-20 -10 -8 -13 19 -13 30 0 30 6 0 10 -10 10 -22z m49 -1 c0 -12 -3 -16 -6 -9
-4 10 -8 10 -19 1 -11 -9 -14 -8 -14 8 0 12 8 19 20 20 15 1 20 -4 19 -20z
m50 -2 c0 -11 -3 -14 -6 -7 -4 10 -8 10 -19 1 -11 -9 -14 -8 -14 8 0 12 7 19
20 19 14 0 20 -7 19 -21z m51 0 c0 -17 -2 -17 -10 -5 -9 13 -11 13 -20 0 -8
-12 -10 -12 -10 5 0 14 6 21 20 21 14 0 20 -7 20 -21z m50 0 c0 -17 -2 -17
-10 -5 -9 13 -11 13 -20 0 -8 -12 -10 -12 -10 5 0 14 6 21 20 21 14 0 20 -7
20 -21z m50 2 c0 -16 -3 -17 -14 -8 -11 9 -15 9 -19 -1 -3 -7 -6 -4 -6 7 -1
14 5 21 19 21 13 0 20 -7 20 -19z m50 0 c0 -16 -3 -17 -14 -8 -11 9 -15 9 -19
-1 -3 -7 -6 -3 -6 9 -1 16 4 21 19 20 12 -1 20 -8 20 -20z m50 0 c0 -16 -3
-17 -14 -8 -11 9 -15 9 -19 -1 -3 -7 -6 -3 -6 9 -1 16 4 21 19 20 12 -1 20 -8
20 -20z m50 6 c0 -6 -9 -11 -20 -10 -11 1 -20 7 -20 14 0 6 9 11 20 10 11 -1
20 -7 20 -14z m42 8 c8 11 9 11 6 1 -4 -16 -22 -18 -24 -2 -2 7 -1 6 3 -1 4
-8 8 -7 15 2z m42 -7 c3 -8 2 -12 -4 -9 -6 3 -10 10 -10 16 0 14 7 11 14 -7z
m26 -6 c0 -19 -2 -20 -10 -8 -13 19 -13 30 0 30 6 0 10 -10 10 -22z m24 7 c3
-8 1 -15 -4 -15 -6 0 -10 7 -10 15 0 8 2 15 4 15 2 0 6 -7 10 -15z m26 -7 c0
-19 -2 -20 -10 -8 -13 19 -13 30 0 30 6 0 10 -10 10 -22z m49 -3 c0 -11 -3
-14 -6 -7 -4 10 -8 10 -19 1 -11 -9 -14 -8 -14 8 0 12 7 19 20 19 14 0 20 -7
19 -21z m50 0 c0 -11 -3 -14 -6 -7 -4 10 -8 10 -19 1 -11 -9 -14 -8 -14 8 0
12 7 19 20 19 14 0 20 -7 19 -21z m51 0 c0 -17 -2 -17 -10 -5 -9 13 -11 13
-20 0 -8 -12 -10 -12 -10 5 0 14 6 21 20 21 14 0 20 -7 20 -21z m23 0 c-7 -21
-13 -19 -13 6 0 11 4 18 10 14 5 -3 7 -12 3 -20z m27 4 c0 -11 -4 -18 -10 -14
-5 3 -7 12 -3 20 7 21 13 19 13 -6z m-2600 -74 c0 -6 -9 -11 -20 -11 -11 0
-20 6 -20 13 0 6 9 11 20 10 11 -1 20 -6 20 -12z m50 3 c0 -4 -9 -8 -21 -8
-11 0 -18 4 -15 8 3 5 12 9 21 9 8 0 15 -4 15 -9z m50 0 c0 -4 -7 -8 -15 -8
-8 0 -15 4 -15 8 0 5 7 9 15 9 8 0 15 -4 15 -9z m60 -3 c0 -8 -7 -11 -20 -8
-11 3 -20 8 -20 12 0 4 9 7 20 8 11 1 20 -4 20 -12z m50 2 c0 -7 -9 -13 -20
-13 -11 0 -20 5 -20 11 0 6 9 11 20 12 11 1 20 -4 20 -10z m50 0 c0 -7 -9 -13
-20 -13 -11 0 -20 5 -20 11 0 6 9 11 20 12 11 1 20 -4 20 -10z m50 0 c0 -7 -9
-13 -20 -13 -11 0 -20 5 -20 11 0 6 9 11 20 12 11 1 20 -4 20 -10z m50 -2 c0
-6 -9 -11 -20 -11 -11 0 -20 5 -20 11 0 6 9 11 20 11 11 0 20 -5 20 -11z m50
0 c0 -6 -9 -11 -20 -11 -11 0 -20 6 -20 13 0 6 9 11 20 10 11 -1 20 -6 20 -12z
m50 0 c0 -6 -9 -11 -20 -11 -11 0 -20 6 -20 13 0 6 9 11 20 10 11 -1 20 -6 20
-12z m50 0 c0 -6 -9 -11 -20 -11 -11 0 -20 6 -20 13 0 6 9 11 20 10 11 -1 20
-6 20 -12z m50 0 c0 -6 -9 -11 -20 -11 -11 0 -20 6 -20 13 0 6 9 11 20 10 11
-1 20 -6 20 -12z m50 3 c0 -4 -7 -8 -15 -8 -8 0 -15 4 -15 8 0 5 7 9 15 9 8 0
15 -4 15 -9z m58 -6 c2 -6 -5 -8 -17 -5 -12 3 -21 9 -21 13 0 12 33 5 38 -8z
m52 3 c0 -8 -7 -11 -20 -8 -11 3 -20 8 -20 12 0 4 9 7 20 8 11 1 20 -4 20 -12z
m50 2 c0 -7 -9 -13 -20 -13 -11 0 -20 5 -20 11 0 6 9 11 20 12 11 1 20 -4 20
-10z m50 0 c0 -7 -9 -13 -20 -13 -11 0 -20 5 -20 11 0 6 9 11 20 12 11 1 20
-4 20 -10z m50 0 c0 -7 -9 -13 -20 -13 -11 0 -20 5 -20 11 0 6 9 11 20 12 11
1 20 -4 20 -10z m50 -2 c0 -6 -9 -11 -20 -11 -11 0 -20 5 -20 11 0 6 9 11 20
11 11 0 20 -5 20 -11z m50 0 c0 -6 -9 -11 -20 -11 -11 0 -20 6 -20 13 0 6 9
11 20 10 11 -1 20 -6 20 -12z m50 0 c0 -6 -9 -11 -20 -11 -11 0 -20 6 -20 13
0 6 9 11 20 10 11 -1 20 -6 20 -12z m50 0 c0 -6 -9 -11 -20 -11 -11 0 -20 6
-20 13 0 6 9 11 20 10 11 -1 20 -6 20 -12z m50 4 c0 -4 -9 -9 -20 -12 -13 -3
-20 0 -20 8 0 8 9 13 20 12 11 -1 20 -4 20 -8z m50 -1 c0 -4 -7 -8 -15 -8 -8
0 -15 4 -15 8 0 5 7 9 15 9 8 0 15 -4 15 -9z m60 -3 c0 -8 -7 -11 -20 -8 -11
3 -20 8 -20 12 0 4 9 7 20 8 11 1 20 -4 20 -12z m50 0 c0 -8 -7 -11 -20 -8
-11 3 -20 8 -20 12 0 4 9 7 20 8 11 1 20 -4 20 -12z m50 2 c0 -7 -9 -13 -20
-13 -11 0 -20 5 -20 11 0 6 9 11 20 12 11 1 20 -4 20 -10z m50 0 c0 -7 -9 -13
-20 -13 -11 0 -20 5 -20 11 0 6 9 11 20 12 11 1 20 -4 20 -10z m50 -2 c0 -6
-9 -11 -20 -11 -11 0 -20 5 -20 11 0 6 9 11 20 11 11 0 20 -5 20 -11z m50 0
c0 -6 -9 -11 -20 -11 -11 0 -20 5 -20 11 0 6 9 11 20 11 11 0 20 -5 20 -11z
m50 0 c0 -6 -9 -11 -20 -11 -11 0 -20 6 -20 13 0 6 9 11 20 10 11 -1 20 -6 20
-12z m50 0 c0 -6 -9 -11 -20 -11 -11 0 -20 6 -20 13 0 6 9 11 20 10 11 -1 20
-6 20 -12z m50 0 c0 -6 -9 -11 -20 -11 -11 0 -20 6 -20 13 0 6 9 11 20 10 11
-1 20 -6 20 -12z m50 4 c0 -4 -9 -9 -20 -12 -13 -3 -20 0 -20 8 0 8 9 13 20
12 11 -1 20 -4 20 -8z m50 -1 c0 -4 -7 -8 -15 -8 -8 0 -15 4 -15 8 0 5 7 9 15
9 8 0 15 -4 15 -9z m60 -3 c0 -8 -7 -11 -20 -8 -11 3 -20 8 -20 12 0 4 9 7 20
8 11 1 20 -4 20 -12z m50 0 c0 -8 -7 -11 -20 -8 -11 3 -20 8 -20 12 0 4 9 7
20 8 11 1 20 -4 20 -12z m50 2 c0 -7 -9 -13 -20 -13 -11 0 -20 5 -20 11 0 6 9
11 20 12 11 1 20 -4 20 -10z m50 0 c0 -7 -9 -13 -20 -13 -11 0 -20 5 -20 11 0
6 9 11 20 12 11 1 20 -4 20 -10z m50 -2 c0 -6 -9 -11 -20 -11 -11 0 -20 5 -20
11 0 6 9 11 20 11 11 0 20 -5 20 -11z m50 0 c0 -6 -9 -11 -20 -11 -11 0 -20 6
-20 13 0 6 9 11 20 10 11 -1 20 -6 20 -12z m50 0 c0 -6 -9 -11 -20 -11 -11 0
-20 6 -20 13 0 6 9 11 20 10 11 -1 20 -6 20 -12z m50 0 c0 -6 -9 -11 -20 -11
-11 0 -20 6 -20 13 0 6 9 11 20 10 11 -1 20 -6 20 -12z m50 0 c0 -6 -9 -11
-20 -11 -11 0 -20 6 -20 13 0 6 9 11 20 10 11 -1 20 -6 20 -12z m50 4 c0 -4
-9 -9 -20 -12 -13 -3 -20 0 -20 8 0 8 9 13 20 12 11 -1 20 -4 20 -8z m50 -1
c0 -4 -7 -8 -15 -8 -8 0 -15 4 -15 8 0 5 7 9 15 9 8 0 15 -4 15 -9z m60 -3 c0
-8 -7 -11 -20 -8 -11 3 -20 8 -20 12 0 4 9 7 20 8 11 1 20 -4 20 -12z m50 2
c0 -7 -9 -13 -20 -13 -11 0 -20 5 -20 11 0 6 9 11 20 12 11 1 20 -4 20 -10z
m50 0 c0 -7 -9 -13 -20 -13 -11 0 -20 5 -20 11 0 6 9 11 20 12 11 1 20 -4 20
-10z m50 0 c0 -7 -9 -13 -20 -13 -11 0 -20 5 -20 11 0 6 9 11 20 12 11 1 20
-4 20 -10z m50 -2 c0 -6 -9 -11 -20 -11 -11 0 -20 5 -20 11 0 6 9 11 20 11 11
0 20 -5 20 -11z m50 0 c0 -6 -9 -11 -20 -11 -11 0 -20 6 -20 13 0 6 9 11 20
10 11 -1 20 -6 20 -12z m-2607 -63 c3 7 6 4 6 -7 1 -14 -5 -21 -19 -21 -13 0
-20 7 -20 19 0 16 3 17 14 8 11 -9 15 -9 19 1z m50 -1 c4 10 6 9 6 -3 1 -12
-6 -18 -19 -18 -20 0 -26 11 -13 23 4 4 10 2 14 -4 5 -8 8 -7 12 2z m49 0 c8
11 9 11 6 1 -4 -16 -22 -18 -24 -2 -2 7 -1 6 3 -1 4 -8 8 -7 15 2z m48 -3 c0
7 5 10 10 7 6 -3 10 -14 10 -23 0 -13 -2 -14 -9 -4 -4 8 -12 13 -17 12 -5 -1
-10 4 -12 12 -2 9 0 8 7 -2 8 -11 11 -12 11 -2z m43 -3 c4 -8 2 -17 -3 -20 -6
-4 -10 3 -10 14 0 25 6 27 13 6z m27 -7 c0 -18 -2 -20 -9 -8 -6 8 -7 18 -5 22
9 14 14 9 14 -14z m23 7 c4 -8 2 -17 -3 -20 -6 -4 -10 3 -10 14 0 25 6 27 13
6z m27 -7 c0 -18 -2 -20 -9 -8 -6 8 -7 18 -5 22 9 14 14 9 14 -14z m23 7 c4
-8 2 -17 -3 -20 -6 -4 -10 3 -10 14 0 25 6 27 13 6z m27 -7 c0 -18 -2 -20 -9
-8 -6 8 -7 18 -5 22 9 14 14 9 14 -14z m50 2 c0 -9 -8 -16 -20 -16 -12 0 -20
7 -20 16 0 9 8 16 20 16 12 0 20 -7 20 -16z m43 12 c3 7 6 4 6 -7 1 -14 -5
-21 -19 -21 -13 0 -20 7 -20 19 0 16 3 17 14 8 11 -9 15 -9 19 1z m50 0 c3 7
6 4 6 -7 1 -14 -5 -21 -19 -21 -13 0 -20 7 -20 19 0 16 3 17 14 8 11 -9 15 -9
19 1z m50 0 c3 7 6 4 6 -7 1 -14 -5 -21 -19 -21 -13 0 -20 7 -20 19 0 16 3 17
14 8 11 -9 15 -9 19 1z m57 -10 c0 -11 -7 -18 -20 -18 -11 0 -20 7 -20 14 0 8
6 12 15 8 8 -3 15 -1 15 4 0 6 2 10 5 10 3 0 5 -8 5 -18z m41 9 c7 11 9 10 9
-4 0 -20 -22 -19 -26 1 -2 9 -1 9 3 1 4 -8 8 -7 14 2z m49 -1 c0 13 1 13 10 0
5 -8 10 -19 10 -25 0 -5 -4 -4 -9 3 -4 8 -12 13 -17 12 -5 -1 -10 4 -12 12 -2
9 0 8 7 -2 10 -13 11 -13 11 0z m56 -3 c9 3 14 -1 13 -13 0 -11 -3 -14 -5 -7
-3 7 -12 9 -20 6 -9 -3 -14 1 -13 13 0 11 3 14 5 7 3 -7 12 -9 20 -6z m37 -2
c4 -8 2 -17 -3 -20 -6 -4 -10 3 -10 14 0 25 6 27 13 6z m27 -7 c0 -18 -2 -20
-9 -8 -6 8 -7 18 -5 22 9 14 14 9 14 -14z m23 7 c4 -8 2 -17 -3 -20 -6 -4 -10
3 -10 14 0 25 6 27 13 6z m27 -7 c0 -18 -2 -20 -9 -8 -6 8 -7 18 -5 22 9 14
14 9 14 -14z m49 -3 c0 -11 -3 -14 -6 -7 -4 10 -8 10 -19 1 -11 -9 -14 -8 -14
8 0 12 7 19 20 19 14 0 20 -7 19 -21z m51 5 c0 -9 -8 -16 -20 -16 -12 0 -20 7
-20 16 0 9 8 16 20 16 12 0 20 -7 20 -16z m43 12 c3 7 6 4 6 -7 1 -14 -5 -21
-19 -21 -13 0 -20 7 -20 19 0 16 3 17 14 8 11 -9 15 -9 19 1z m50 0 c3 7 6 4
6 -7 1 -14 -5 -21 -19 -21 -13 0 -20 7 -20 19 0 16 3 17 14 8 11 -9 15 -9 19
1z m50 0 c3 7 6 4 6 -7 1 -14 -5 -21 -19 -21 -13 0 -20 7 -20 19 0 16 3 17 14
8 11 -9 15 -9 19 1z m48 -1 c7 11 9 11 9 -2 0 -9 -9 -19 -20 -22 -12 -3 -20 0
-20 7 0 18 14 29 19 15 2 -8 6 -7 12 2z m50 0 c7 11 9 10 9 -4 0 -20 -22 -19
-26 1 -2 9 -1 9 3 1 4 -8 8 -7 14 2z m49 -3 c0 7 5 10 10 7 6 -3 10 -14 10
-23 0 -13 -2 -14 -9 -4 -4 8 -12 13 -17 12 -5 -1 -10 4 -12 12 -2 9 0 8 7 -2
8 -11 11 -12 11 -2z m44 -3 c3 -8 1 -15 -4 -15 -6 0 -10 7 -10 15 0 8 2 15 4
15 2 0 6 -7 10 -15z m26 -7 c0 -19 -2 -20 -10 -8 -13 19 -13 30 0 30 6 0 10
-10 10 -22z m23 7 c4 -8 2 -17 -3 -20 -6 -4 -10 3 -10 14 0 25 6 27 13 6z m27
-7 c0 -18 -2 -20 -9 -8 -6 8 -7 18 -5 22 9 14 14 9 14 -14z m23 7 c4 -8 2 -17
-3 -20 -6 -4 -10 3 -10 14 0 25 6 27 13 6z m27 -7 c0 -18 -2 -20 -9 -8 -6 8
-7 18 -5 22 9 14 14 9 14 -14z m49 -3 c0 -11 -3 -14 -6 -7 -4 10 -8 10 -19 1
-11 -9 -14 -8 -14 8 0 12 7 19 20 19 14 0 20 -7 19 -21z m51 5 c0 -9 -8 -16
-20 -16 -12 0 -20 7 -20 16 0 9 8 16 20 16 12 0 20 -7 20 -16z m43 12 c3 7 6
4 6 -7 1 -14 -5 -21 -19 -21 -13 0 -20 7 -20 19 0 16 3 17 14 8 11 -9 15 -9
19 1z m50 0 c3 7 6 4 6 -7 1 -14 -5 -21 -19 -21 -13 0 -20 7 -20 19 0 16 3 17
14 8 11 -9 15 -9 19 1z m30 -17 c-7 -21 -13 -19 -13 6 0 11 4 18 10 14 5 -3 7
-12 3 -20z m27 4 c0 -11 -4 -18 -10 -14 -5 3 -7 12 -3 20 7 21 13 19 13 -6z
m21 -6 c-8 -15 -10 -15 -11 -2 0 17 10 32 18 25 2 -3 -1 -13 -7 -23z m29 12
c0 -8 -4 -15 -10 -15 -5 0 -7 7 -4 15 4 8 8 15 10 15 2 0 4 -7 4 -15z m42 6
c8 11 9 11 6 1 -4 -16 -22 -18 -24 -2 -2 7 -1 6 3 -1 4 -8 8 -7 15 2z m48 -3
c0 7 5 10 10 7 6 -3 10 -14 10 -23 0 -13 -2 -14 -9 -4 -4 8 -12 13 -17 12 -5
-1 -10 4 -12 12 -2 9 0 8 7 -2 8 -11 11 -12 11 -2z m44 -3 c3 -8 1 -15 -4 -15
-6 0 -10 7 -10 15 0 8 2 15 4 15 2 0 6 -7 10 -15z m26 -7 c0 -18 -2 -20 -9 -8
-6 8 -7 18 -5 22 9 14 14 9 14 -14z m23 7 c4 -8 2 -17 -3 -20 -6 -4 -10 3 -10
14 0 25 6 27 13 6z m27 -7 c0 -18 -2 -20 -9 -8 -6 8 -7 18 -5 22 9 14 14 9 14
-14z m23 7 c4 -8 2 -17 -3 -20 -6 -4 -10 3 -10 14 0 25 6 27 13 6z m27 -7 c0
-18 -2 -20 -9 -8 -6 8 -7 18 -5 22 9 14 14 9 14 -14z m49 -3 c0 -11 -3 -14 -6
-7 -4 10 -8 10 -19 1 -11 -9 -14 -8 -14 8 0 12 7 19 20 19 14 0 20 -7 19 -21z
m44 17 c3 7 6 4 6 -7 1 -14 -5 -21 -19 -21 -13 0 -20 7 -20 19 0 16 3 17 14 8
11 -9 15 -9 19 1z m50 0 c3 7 6 4 6 -7 1 -14 -5 -21 -19 -21 -13 0 -20 7 -20
19 0 16 3 17 14 8 11 -9 15 -9 19 1z m50 0 c3 7 6 4 6 -7 1 -14 -5 -21 -19
-21 -13 0 -20 7 -20 19 0 16 3 17 14 8 11 -9 15 -9 19 1z m50 0 c3 7 6 4 6 -7
1 -14 -5 -21 -19 -21 -13 0 -20 7 -20 19 0 16 3 17 14 8 11 -9 15 -9 19 1z
m48 -1 c7 11 9 11 9 -2 0 -9 -9 -19 -20 -22 -12 -3 -20 0 -20 7 0 18 14 29 19
15 2 -8 6 -7 12 2z m51 0 c8 11 9 11 6 1 -4 -16 -22 -18 -24 -2 -2 7 -1 6 3
-1 4 -8 8 -7 15 2z m48 -3 c0 7 5 10 10 7 6 -3 10 -14 10 -23 0 -13 -2 -14 -9
-4 -4 8 -12 13 -17 12 -5 -1 -10 4 -12 12 -2 9 0 8 7 -2 8 -11 11 -12 11 -2z
m43 -3 c4 -8 2 -17 -3 -20 -6 -4 -10 3 -10 14 0 25 6 27 13 6z m27 -7 c0 -18
-2 -20 -9 -8 -6 8 -7 18 -5 22 9 14 14 9 14 -14z m23 7 c4 -8 2 -17 -3 -20 -6
-4 -10 3 -10 14 0 25 6 27 13 6z m27 -7 c0 -18 -2 -20 -9 -8 -6 8 -7 18 -5 22
9 14 14 9 14 -14z m23 7 c4 -8 2 -17 -3 -20 -6 -4 -10 3 -10 14 0 25 6 27 13
6z m27 -7 c0 -18 -2 -20 -9 -8 -6 8 -7 18 -5 22 9 14 14 9 14 -14z m50 2 c0
-9 -8 -16 -20 -16 -12 0 -20 7 -20 16 0 9 8 16 20 16 12 0 20 -7 20 -16z m43
12 c3 7 6 4 6 -7 1 -14 -5 -21 -19 -21 -13 0 -20 7 -20 19 0 16 3 17 14 8 11
-9 15 -9 19 1z m50 -16 c4 -10 1 -13 -9 -9 -15 6 -19 23 -5 23 5 0 11 -7 14
-14z m-2643 -73 c0 -6 -9 -11 -20 -10 -11 1 -20 7 -20 14 0 6 9 11 20 10 11
-1 20 -7 20 -14z m50 5 c0 -15 -18 -17 -30 -3 -9 11 -8 14 9 12 12 -1 21 -5
21 -9z m48 0 c-2 -5 -8 -9 -13 -9 -5 0 -11 4 -13 9 -1 5 4 9 13 9 9 0 14 -4
13 -9z m62 -3 c0 -7 -8 -12 -17 -11 -24 4 -27 21 -3 23 11 1 20 -4 20 -12z
m49 -8 c0 -12 -3 -17 -5 -10 -3 7 -12 9 -20 6 -8 -3 -14 1 -14 9 0 7 9 14 20
15 15 1 20 -4 19 -20z m50 0 c0 -12 -3 -17 -5 -10 -3 7 -12 9 -20 6 -8 -3 -14
1 -14 9 0 7 9 14 20 15 15 1 20 -4 19 -20z m51 -2 c0 -17 -2 -17 -10 -5 -9 13
-11 13 -20 0 -8 -12 -10 -12 -10 5 0 14 6 21 20 21 14 0 20 -7 20 -21z m50 0
c0 -17 -2 -17 -10 -5 -9 13 -11 13 -20 0 -8 -12 -10 -12 -10 5 0 14 6 21 20
21 14 0 20 -7 20 -21z m50 0 c0 -17 -2 -17 -10 -5 -9 13 -11 13 -20 0 -8 -12
-10 -12 -10 5 0 14 6 21 20 21 14 0 20 -7 20 -21z m50 7 c0 -7 -5 -10 -11 -6
-6 3 -15 0 -20 -7 -6 -11 -9 -8 -9 8 0 16 6 21 20 20 11 -1 20 -7 20 -15z m50
1 c0 -6 -9 -11 -20 -10 -11 1 -20 7 -20 14 0 6 9 11 20 10 11 -1 20 -7 20 -14z
m50 0 c0 -6 -9 -11 -20 -10 -11 1 -20 7 -20 14 0 6 9 11 20 10 11 -1 20 -7 20
-14z m48 5 c-2 -5 -8 -9 -13 -9 -5 0 -11 4 -13 9 -1 5 4 9 13 9 9 0 14 -4 13
-9z m60 -6 c2 -6 -5 -9 -14 -8 -10 2 -20 8 -22 14 -2 6 5 9 14 8 10 -2 20 -8
22 -14z m52 3 c0 -7 -8 -12 -17 -11 -24 4 -27 21 -3 23 11 1 20 -4 20 -12z
m49 -8 c0 -12 -3 -17 -5 -10 -3 7 -12 9 -20 6 -8 -3 -14 1 -14 9 0 7 9 14 20
15 15 1 20 -4 19 -20z m50 0 c0 -12 -3 -17 -5 -10 -3 7 -12 9 -20 6 -8 -3 -14
1 -14 9 0 7 9 14 20 15 15 1 20 -4 19 -20z m51 -2 c0 -17 -2 -17 -10 -5 -9 13
-11 13 -20 0 -8 -12 -10 -12 -10 5 0 14 6 21 20 21 14 0 20 -7 20 -21z m50 0
c0 -17 -2 -17 -10 -5 -9 13 -11 13 -20 0 -8 -12 -10 -12 -10 5 0 14 6 21 20
21 14 0 20 -7 20 -21z m50 0 c0 -17 -2 -17 -10 -5 -9 13 -11 13 -20 0 -8 -12
-10 -12 -10 5 0 14 6 21 20 21 14 0 20 -7 20 -21z m50 7 c0 -7 -5 -10 -11 -6
-6 3 -15 0 -20 -7 -6 -11 -9 -8 -9 8 0 16 6 21 20 20 11 -1 20 -7 20 -15z m50
1 c0 -6 -9 -11 -20 -10 -11 1 -20 7 -20 14 0 6 9 11 20 10 11 -1 20 -7 20 -14z
m50 0 c0 -6 -9 -11 -20 -10 -11 1 -20 7 -20 14 0 6 9 11 20 10 11 -1 20 -7 20
-14z m48 5 c-2 -5 -8 -9 -13 -9 -5 0 -11 4 -13 9 -1 5 4 9 13 9 9 0 14 -4 13
-9z m62 -3 c0 -7 -8 -12 -17 -11 -24 4 -27 21 -3 23 11 1 20 -4 20 -12z m50 0
c0 -7 -8 -12 -17 -11 -24 4 -27 21 -3 23 11 1 20 -4 20 -12z m49 -8 c0 -12 -3
-17 -5 -10 -3 7 -12 9 -20 6 -8 -3 -14 1 -14 9 0 7 9 14 20 15 15 1 20 -4 19
-20z m50 -2 c0 -11 -3 -14 -6 -7 -4 10 -8 10 -19 1 -11 -9 -14 -8 -14 8 0 12
7 19 20 19 14 0 20 -7 19 -21z m51 0 c0 -17 -2 -17 -10 -5 -9 13 -11 13 -20 0
-8 -12 -10 -12 -10 5 0 14 6 21 20 21 14 0 20 -7 20 -21z m50 0 c0 -17 -2 -17
-10 -5 -9 13 -11 13 -20 0 -8 -12 -10 -12 -10 5 0 14 6 21 20 21 14 0 20 -7
20 -21z m50 7 c0 -7 -5 -10 -11 -6 -6 3 -15 0 -20 -7 -7 -11 -9 -9 -9 6 0 14
6 21 20 21 11 0 20 -6 20 -14z m50 0 c0 -7 -5 -10 -11 -6 -6 3 -15 0 -20 -7
-6 -11 -9 -8 -9 8 0 16 6 21 20 20 11 -1 20 -7 20 -15z m50 1 c0 -6 -9 -11
-20 -10 -11 1 -20 7 -20 14 0 6 9 11 20 10 11 -1 20 -7 20 -14z m47 3 c-5 -15
-37 -16 -37 -1 0 8 9 13 20 12 11 -1 19 -6 17 -11z m51 2 c-2 -5 -8 -9 -13 -9
-5 0 -11 4 -13 9 -1 5 4 9 13 9 9 0 14 -4 13 -9z m62 -3 c0 -7 -8 -12 -17 -11
-24 4 -27 21 -3 23 11 1 20 -4 20 -12z m50 -8 c0 -16 -3 -18 -9 -9 -4 8 -12
13 -17 12 -5 -1 -10 2 -11 7 -2 5 6 9 17 10 14 1 20 -4 20 -20z m49 0 c0 -12
-3 -17 -5 -10 -3 7 -12 9 -20 6 -8 -3 -14 1 -14 9 0 7 9 14 20 15 15 1 20 -4
19 -20z m51 -2 c0 -17 -2 -17 -10 -5 -9 13 -11 13 -20 0 -8 -12 -10 -12 -10 5
0 14 6 21 20 21 14 0 20 -7 20 -21z m50 0 c0 -17 -2 -17 -10 -5 -9 13 -11 13
-20 0 -8 -12 -10 -12 -10 5 0 14 6 21 20 21 14 0 20 -7 20 -21z m50 0 c0 -17
-2 -17 -10 -5 -9 13 -11 13 -20 0 -8 -12 -10 -12 -10 5 0 14 6 21 20 21 14 0
20 -7 20 -21z m50 7 c0 -7 -5 -10 -11 -6 -6 3 -15 0 -20 -7 -7 -11 -9 -9 -9 6
0 14 6 21 20 21 11 0 20 -6 20 -14z m50 0 c0 -8 -6 -12 -14 -9 -8 3 -17 1 -20
-6 -2 -7 -5 -2 -5 10 -1 16 4 21 19 20 11 -1 20 -8 20 -15z m50 1 c0 -6 -9
-11 -20 -10 -11 1 -20 7 -20 14 0 6 9 11 20 10 11 -1 20 -7 20 -14z m50 7 c0
-13 -12 -19 -26 -13 -21 8 -17 22 6 20 11 -1 20 -4 20 -7z m48 -2 c-2 -5 -8
-9 -13 -9 -5 0 -11 4 -13 9 -1 5 4 9 13 9 9 0 14 -4 13 -9z m62 -3 c0 -7 -8
-12 -17 -11 -24 4 -27 21 -3 23 11 1 20 -4 20 -12z m49 -8 c0 -12 -3 -17 -5
-10 -3 7 -12 9 -20 6 -8 -3 -14 1 -14 9 0 7 9 14 20 15 15 1 20 -4 19 -20z
m50 0 c0 -12 -3 -17 -5 -10 -3 7 -12 9 -20 6 -8 -3 -14 1 -14 9 0 7 9 14 20
15 15 1 20 -4 19 -20z m51 -2 c0 -17 -2 -17 -10 -5 -9 13 -11 13 -20 0 -8 -12
-10 -12 -10 5 0 14 6 21 20 21 14 0 20 -7 20 -21z m50 0 c0 -17 -2 -17 -10 -5
-9 13 -11 13 -20 0 -8 -12 -10 -12 -10 5 0 14 6 21 20 21 14 0 20 -7 20 -21z
m50 0 c0 -17 -2 -17 -10 -5 -9 13 -11 13 -20 0 -8 -12 -10 -12 -10 5 0 14 6
21 20 21 14 0 20 -7 20 -21z m40 11 c0 -3 -4 -8 -10 -11 -5 -3 -10 -1 -10 4 0
6 5 11 10 11 6 0 10 -2 10 -4z m-2640 -74 c0 -11 -7 -18 -20 -18 -11 0 -20 7
-20 14 0 8 6 12 15 8 8 -3 15 -1 15 4 0 6 2 10 5 10 3 0 5 -8 5 -18z m460 0
c0 -11 -7 -18 -20 -18 -11 0 -20 7 -20 14 0 8 6 12 15 8 8 -3 15 -1 15 4 0 6
2 10 5 10 3 0 5 -8 5 -18z m50 0 c0 -11 -7 -18 -20 -18 -11 0 -20 7 -20 14 0
8 6 12 15 8 8 -3 15 -1 15 4 0 6 2 10 5 10 3 0 5 -8 5 -18z m50 0 c0 -11 -7
-18 -20 -18 -11 0 -20 7 -20 14 0 8 6 12 15 8 8 -3 15 -1 15 4 0 6 2 10 5 10
3 0 5 -8 5 -18z m183 3 c4 -8 2 -17 -3 -20 -6 -4 -10 3 -10 14 0 25 6 27 13 6z
m50 0 c4 -8 2 -17 -3 -20 -6 -4 -10 3 -10 14 0 25 6 27 13 6z m63 2 c8 3 14
-1 14 -9 0 -7 -9 -14 -20 -14 -14 0 -20 7 -19 21 0 11 3 15 5 8 3 -7 12 -9 20
-6z m57 5 c3 7 6 4 6 -7 1 -14 -5 -21 -19 -21 -13 0 -20 7 -20 19 0 16 3 17
14 8 11 -9 15 -9 19 1z m50 0 c3 7 6 4 6 -7 1 -14 -5 -21 -19 -21 -13 0 -20 7
-20 19 0 16 3 17 14 8 11 -9 15 -9 19 1z m57 -10 c0 -11 -7 -18 -20 -18 -11 0
-20 7 -20 14 0 8 6 12 15 8 8 -3 15 -1 15 4 0 6 2 10 5 10 3 0 5 -8 5 -18z
m50 0 c0 -11 -7 -18 -20 -18 -11 0 -20 7 -20 14 0 8 6 12 15 8 8 -3 15 -1 15
4 0 6 2 10 5 10 3 0 5 -8 5 -18z m233 3 c4 -8 2 -17 -3 -20 -6 -4 -10 3 -10
14 0 25 6 27 13 6z m63 2 c8 3 14 -1 14 -9 0 -7 -9 -14 -20 -14 -14 0 -20 7
-19 21 0 11 3 15 5 8 3 -7 12 -9 20 -6z m50 0 c8 3 14 -1 14 -9 0 -7 -9 -14
-20 -14 -14 0 -20 7 -19 21 0 11 3 15 5 8 3 -7 12 -9 20 -6z m57 5 c3 7 6 4 6
-7 1 -14 -5 -21 -19 -21 -13 0 -20 7 -20 19 0 16 3 17 14 8 11 -9 15 -9 19 1z
m50 0 c3 7 6 4 6 -7 1 -14 -5 -21 -19 -21 -13 0 -20 7 -20 19 0 16 3 17 14 8
11 -9 15 -9 19 1z m57 -10 c0 -11 -7 -18 -20 -18 -11 0 -20 7 -20 14 0 8 6 12
15 8 8 -3 15 -1 15 4 0 6 2 10 5 10 3 0 5 -8 5 -18z m50 0 c0 -11 -7 -18 -20
-18 -11 0 -20 7 -20 14 0 8 6 12 15 8 8 -3 15 -1 15 4 0 6 2 10 5 10 3 0 5 -8
5 -18z m233 3 c4 -8 2 -17 -3 -20 -6 -4 -10 3 -10 14 0 25 6 27 13 6z m63 2
c8 3 14 -1 14 -9 0 -7 -9 -14 -20 -14 -14 0 -20 7 -19 21 0 11 3 15 5 8 3 -7
12 -9 20 -6z m53 -3 c6 4 11 1 11 -6 0 -8 -9 -14 -20 -14 -14 0 -20 7 -20 21
0 15 2 17 9 6 5 -7 14 -10 20 -7z m54 8 c3 7 6 4 6 -7 1 -14 -5 -21 -19 -21
-13 0 -20 7 -20 19 0 16 3 17 14 8 11 -9 15 -9 19 1z m50 0 c3 7 6 4 6 -7 1
-14 -5 -21 -19 -21 -13 0 -20 7 -20 19 0 16 3 17 14 8 11 -9 15 -9 19 1z m57
-10 c0 -11 -7 -18 -20 -18 -11 0 -20 7 -20 14 0 8 6 12 15 8 8 -3 15 -1 15 4
0 6 2 10 5 10 3 0 5 -8 5 -18z m399 2 c6 4 11 1 11 -6 0 -8 -9 -14 -20 -14
-14 0 -20 7 -20 21 0 15 2 17 9 6 5 -7 14 -10 20 -7z m54 8 c3 7 6 4 6 -7 1
-14 -5 -21 -19 -21 -13 0 -20 7 -20 19 0 16 3 17 14 8 11 -9 15 -9 19 1z
m-2543 -14 c0 -11 -28 -10 -35 1 -3 6 4 9 15 8 11 -1 20 -5 20 -9z m50 0 c0
-4 -7 -8 -15 -8 -8 0 -15 4 -15 8 0 5 7 9 15 9 8 0 15 -4 15 -9z m284 -3 c-4
-8 -8 -15 -10 -15 -2 0 -4 7 -4 15 0 8 4 15 10 15 5 0 7 -7 4 -15z m23 -7 c-3
-8 -6 -5 -6 6 -1 11 2 17 5 13 3 -3 4 -12 1 -19z m203 10 c0 -4 -7 -8 -15 -8
-8 0 -15 4 -15 8 0 5 7 9 15 9 8 0 15 -4 15 -9z m58 -6 c2 -6 -5 -8 -17 -5
-12 3 -21 9 -21 13 0 12 33 5 38 -8z m52 3 c0 -8 -7 -11 -20 -8 -11 3 -20 8
-20 12 0 4 9 7 20 8 11 1 20 -4 20 -12z m50 0 c0 -8 -2 -15 -4 -15 -2 0 -6 7
-10 15 -3 8 -1 15 4 15 6 0 10 -7 10 -15z m50 0 c0 -8 -2 -15 -4 -15 -2 0 -6
7 -10 15 -3 8 -1 15 4 15 6 0 10 -7 10 -15z m300 4 c0 -4 -9 -9 -20 -12 -13
-3 -20 0 -20 8 0 8 9 13 20 12 11 -1 20 -4 20 -8z m50 -1 c0 -4 -7 -8 -15 -8
-8 0 -15 4 -15 8 0 5 7 9 15 9 8 0 15 -4 15 -9z m60 -3 c0 -8 -7 -11 -20 -8
-11 3 -20 8 -20 12 0 4 9 7 20 8 11 1 20 -4 20 -12z m50 0 c0 -8 -7 -11 -20
-8 -11 3 -20 8 -20 12 0 4 9 7 20 8 11 1 20 -4 20 -12z m50 0 c0 -8 -2 -15 -4
-15 -2 0 -6 7 -10 15 -3 8 -1 15 4 15 6 0 10 -7 10 -15z m350 4 c0 -4 -9 -9
-20 -12 -13 -3 -20 0 -20 8 0 8 9 13 20 12 11 -1 20 -4 20 -8z m50 -1 c0 -4
-7 -8 -15 -8 -8 0 -15 4 -15 8 0 5 7 9 15 9 8 0 15 -4 15 -9z m60 -3 c0 -8 -7
-11 -20 -8 -11 3 -20 8 -20 12 0 4 9 7 20 8 11 1 20 -4 20 -12z m49 -3 c0 -10
-3 -12 -5 -5 -3 7 -12 9 -20 6 -8 -3 -14 -1 -14 4 0 5 9 9 20 10 13 1 20 -4
19 -15z m51 3 c0 -8 -2 -15 -4 -15 -2 0 -6 7 -10 15 -3 8 -1 15 4 15 6 0 10
-7 10 -15z m300 -3 c0 -12 -3 -12 -15 -2 -8 7 -15 13 -15 15 0 1 7 2 15 2 8 0
15 -7 15 -15z m-2210 -59 c0 -5 -5 -15 -10 -23 -8 -12 -10 -11 -10 8 0 12 5
22 10 22 6 0 10 -3 10 -7z m20 -14 c0 -11 -4 -18 -10 -14 -5 3 -7 12 -3 20 7
21 13 19 13 -6z m30 14 c0 -5 -5 -15 -10 -23 -7 -12 -9 -10 -7 8 1 19 17 33
17 15z m20 -8 c0 -8 -4 -15 -10 -15 -5 0 -7 7 -4 15 4 8 8 15 10 15 2 0 4 -7
4 -15z m42 6 c8 11 9 11 6 1 -4 -16 -22 -18 -24 -2 -2 7 -1 6 3 -1 4 -8 8 -7
15 2z m503 -13 c4 0 12 6 16 14 5 7 9 9 9 3 0 -14 -16 -37 -25 -37 -9 0 -25
23 -25 37 0 6 4 4 9 -3 4 -8 12 -14 16 -14z m55 12 c0 13 1 13 10 0 5 -8 10
-19 10 -25 0 -5 -4 -4 -9 3 -4 8 -12 13 -17 12 -5 -1 -10 4 -12 12 -2 9 0 8 7
-2 10 -13 11 -13 11 0z m44 -6 c3 -8 2 -12 -4 -9 -6 3 -10 10 -10 16 0 14 7
11 14 -7z m26 -6 c0 -19 -2 -20 -10 -8 -13 19 -13 30 0 30 6 0 10 -10 10 -22z
m23 7 c4 -8 2 -17 -3 -20 -6 -4 -10 3 -10 14 0 25 6 27 13 6z m27 -7 c0 -18
-2 -20 -9 -8 -6 8 -7 18 -5 22 9 14 14 9 14 -14z m23 7 c4 -8 2 -17 -3 -20 -6
-4 -10 3 -10 14 0 25 6 27 13 6z m27 -7 c0 -18 -2 -20 -9 -8 -6 8 -7 18 -5 22
9 14 14 9 14 -14z m49 -3 c0 -11 -3 -14 -6 -7 -4 10 -8 10 -19 1 -11 -9 -14
-8 -14 8 0 12 7 19 20 19 14 0 20 -7 19 -21z m50 0 c0 -11 -3 -14 -6 -7 -4 10
-8 10 -19 1 -11 -9 -14 -8 -14 8 0 12 7 19 20 19 14 0 20 -7 19 -21z m51 2 c0
-16 -3 -17 -14 -8 -11 9 -15 9 -19 -1 -3 -7 -6 -4 -6 7 -1 14 5 21 19 21 13 0
20 -7 20 -19z m23 -2 c-7 -21 -13 -19 -13 6 0 11 4 18 10 14 5 -3 7 -12 3 -20z
m27 4 c0 -11 -4 -18 -10 -14 -5 3 -7 12 -3 20 7 21 13 19 13 -6z m30 14 c0 -5
-5 -15 -10 -23 -8 -12 -10 -11 -10 8 0 12 5 22 10 22 6 0 10 -3 10 -7z m20
-14 c0 -11 -4 -18 -10 -14 -5 3 -7 12 -3 20 7 21 13 19 13 -6z m30 14 c0 -5
-5 -15 -10 -23 -8 -12 -10 -11 -10 8 0 12 5 22 10 22 6 0 10 -3 10 -7z m20 -8
c0 -8 -4 -15 -10 -15 -5 0 -7 7 -4 15 4 8 8 15 10 15 2 0 4 -7 4 -15z m42 6
c8 11 9 11 6 1 -4 -16 -22 -18 -24 -2 -2 7 -1 6 3 -1 4 -8 8 -7 15 2z m48 -3
c0 7 5 10 10 7 6 -3 10 -14 10 -23 0 -13 -2 -14 -9 -4 -4 8 -12 13 -17 12 -5
-1 -10 4 -12 12 -2 9 0 8 7 -2 8 -11 11 -12 11 -2z m44 -4 c3 -8 2 -12 -4 -9
-6 3 -10 10 -10 16 0 14 7 11 14 -7z m26 -6 c0 -19 -2 -20 -10 -8 -13 19 -13
30 0 30 6 0 10 -10 10 -22z m23 7 c4 -8 2 -17 -3 -20 -6 -4 -10 3 -10 14 0 25
6 27 13 6z m27 -7 c0 -18 -2 -20 -9 -8 -6 8 -7 18 -5 22 9 14 14 9 14 -14z
m49 -3 c0 -11 -3 -14 -6 -7 -4 10 -8 10 -19 1 -11 -9 -14 -8 -14 8 0 12 7 19
20 19 14 0 20 -7 19 -21z m50 0 c0 -11 -3 -14 -6 -7 -4 10 -8 10 -19 1 -11 -9
-14 -8 -14 8 0 12 7 19 20 19 14 0 20 -7 19 -21z m51 5 c0 -9 -8 -16 -20 -16
-12 0 -20 7 -20 16 0 9 8 16 20 16 12 0 20 -7 20 -16z m23 -5 c-7 -21 -13 -19
-13 6 0 11 4 18 10 14 5 -3 7 -12 3 -20z m27 4 c0 -11 -4 -18 -10 -14 -5 3 -7
12 -3 20 7 21 13 19 13 -6z m23 -4 c-7 -21 -13 -19 -13 6 0 11 4 18 10 14 5
-3 7 -12 3 -20z m27 4 c0 -11 -4 -18 -10 -14 -5 3 -7 12 -3 20 7 21 13 19 13
-6z m30 14 c0 -5 -5 -15 -10 -23 -8 -12 -10 -11 -10 8 0 12 5 22 10 22 6 0 10
-3 10 -7z m20 -14 c0 -11 -4 -18 -10 -14 -5 3 -7 12 -3 20 7 21 13 19 13 -6z
m30 14 c0 -5 -5 -15 -10 -23 -8 -12 -10 -11 -10 8 0 12 5 22 10 22 6 0 10 -3
10 -7z m20 -8 c0 -8 -4 -15 -10 -15 -5 0 -7 7 -4 15 4 8 8 15 10 15 2 0 4 -7
4 -15z m42 6 c8 11 9 11 6 1 -4 -16 -22 -18 -24 -2 -2 7 -1 6 3 -1 4 -8 8 -7
15 2z m48 -3 c0 7 5 10 10 7 6 -3 10 -14 10 -23 0 -13 -2 -14 -9 -4 -4 8 -12
13 -17 12 -5 -1 -10 4 -12 12 -2 9 0 8 7 -2 8 -11 11 -12 11 -2z m44 -4 c3 -8
2 -12 -4 -9 -6 3 -10 10 -10 16 0 14 7 11 14 -7z m26 -6 c0 -19 -2 -20 -10 -8
-13 19 -13 30 0 30 6 0 10 -10 10 -22z m23 7 c4 -8 2 -17 -3 -20 -6 -4 -10 3
-10 14 0 25 6 27 13 6z m27 -7 c0 -18 -2 -20 -9 -8 -6 8 -7 18 -5 22 9 14 14
9 14 -14z m23 7 c4 -8 2 -17 -3 -20 -6 -4 -10 3 -10 14 0 25 6 27 13 6z m27
-7 c0 -18 -2 -20 -9 -8 -6 8 -7 18 -5 22 9 14 14 9 14 -14z m49 -3 c0 -11 -3
-14 -6 -7 -4 10 -8 10 -19 1 -11 -9 -14 -8 -14 8 0 12 7 19 20 19 14 0 20 -7
19 -21z m18 -7 c-3 -7 -5 -2 -5 12 0 14 2 19 5 13 2 -7 2 -19 0 -25z m542 7
c0 -11 -3 -14 -6 -7 -4 10 -8 10 -19 1 -11 -9 -14 -8 -14 8 0 12 7 19 20 19
14 0 20 -7 19 -21z m51 2 c0 -16 -3 -17 -14 -8 -11 9 -15 9 -19 -1 -3 -7 -6
-4 -6 7 -1 14 5 21 19 21 13 0 20 -7 20 -19z m-2600 -80 c0 -11 -1 -18 -3 -16
-1 2 -8 11 -15 20 -9 13 -9 16 3 16 8 0 15 -9 15 -20z m50 12 c0 -4 -9 -9 -20
-12 -13 -3 -20 0 -20 8 0 8 9 13 20 12 11 -1 20 -4 20 -8z m60 -4 c0 -7 -8
-12 -17 -11 -24 4 -27 21 -3 23 11 1 20 -4 20 -12z m653 7 c4 9 6 7 6 -4 1
-11 -6 -16 -19 -15 -11 1 -20 8 -20 15 0 11 3 12 14 3 11 -9 15 -9 19 1z m57
-15 c0 -16 -3 -19 -9 -8 -5 7 -14 10 -20 7 -6 -4 -11 -1 -11 6 0 8 9 14 20 15
14 1 20 -4 20 -20z m50 8 c0 -6 -9 -11 -20 -11 -11 0 -20 5 -20 11 0 6 9 11
20 11 11 0 20 -5 20 -11z m50 -3 c0 -7 -5 -10 -11 -6 -6 3 -15 0 -20 -7 -7
-11 -9 -9 -9 6 0 14 6 21 20 21 11 0 20 -6 20 -14z m50 3 c0 -6 -9 -11 -20
-11 -11 0 -20 6 -20 13 0 6 9 11 20 10 11 -1 20 -6 20 -12z m50 0 c0 -6 -9
-11 -20 -11 -11 0 -20 6 -20 13 0 6 9 11 20 10 11 -1 20 -6 20 -12z m50 0 c0
-6 -9 -11 -20 -11 -11 0 -20 6 -20 13 0 6 9 11 20 10 11 -1 20 -6 20 -12z m50
0 c0 -6 -9 -11 -20 -11 -11 0 -20 6 -20 13 0 6 9 11 20 10 11 -1 20 -6 20 -12z
m50 3 c0 -4 -7 -8 -15 -8 -8 0 -15 4 -15 8 0 5 7 9 15 9 8 0 15 -4 15 -9z m60
-3 c0 -7 -8 -12 -17 -11 -24 4 -27 21 -3 23 11 1 20 -4 20 -12z m50 0 c0 -7
-8 -12 -17 -11 -24 4 -27 21 -3 23 11 1 20 -4 20 -12z m50 2 c0 -7 -9 -13 -20
-13 -11 0 -20 5 -20 11 0 6 9 11 20 12 11 1 20 -4 20 -10z m50 0 c0 -7 -9 -13
-20 -13 -11 0 -20 5 -20 11 0 6 9 11 20 12 11 1 20 -4 20 -10z m50 -2 c0 -6
-9 -11 -20 -11 -11 0 -20 5 -20 11 0 6 9 11 20 11 11 0 20 -5 20 -11z m50 -3
c0 -7 -5 -10 -11 -6 -6 3 -15 0 -20 -7 -7 -11 -9 -9 -9 6 0 14 6 21 20 21 11
0 20 -6 20 -14z m50 3 c0 -6 -9 -11 -20 -11 -11 0 -20 6 -20 13 0 6 9 11 20
10 11 -1 20 -6 20 -12z m50 0 c0 -6 -9 -11 -20 -11 -11 0 -20 6 -20 13 0 6 9
11 20 10 11 -1 20 -6 20 -12z m50 0 c0 -6 -9 -11 -20 -11 -11 0 -20 6 -20 13
0 6 9 11 20 10 11 -1 20 -6 20 -12z m50 4 c0 -4 -9 -9 -20 -12 -13 -3 -20 0
-20 8 0 8 9 13 20 12 11 -1 20 -4 20 -8z m50 -1 c0 -4 -7 -8 -15 -8 -8 0 -15
4 -15 8 0 5 7 9 15 9 8 0 15 -4 15 -9z m60 -3 c0 -8 -7 -11 -20 -8 -11 3 -20
8 -20 12 0 4 9 7 20 8 11 1 20 -4 20 -12z m50 0 c0 -8 -7 -11 -20 -8 -11 3
-20 8 -20 12 0 4 9 7 20 8 11 1 20 -4 20 -12z m40 10 c0 -2 -7 -8 -15 -15 -12
-10 -15 -10 -15 2 0 8 7 15 15 15 8 0 15 -1 15 -2z m610 0 c0 -2 -7 -8 -15
-15 -12 -10 -15 -10 -15 2 0 8 7 15 15 15 8 0 15 -1 15 -2z m60 -10 c0 -6 -9
-11 -20 -11 -11 0 -20 5 -20 11 0 6 9 11 20 11 11 0 20 -5 20 -11z m50 -10 c0
-8 -8 -11 -20 -8 -11 3 -20 11 -20 18 0 8 8 11 20 8 11 -3 20 -11 20 -18z
m-2559 -54 c7 11 9 11 9 -2 0 -9 -9 -19 -20 -22 -12 -3 -20 0 -20 7 0 18 14
29 19 15 2 -8 6 -7 12 2z m49 -5 c0 6 7 11 15 11 17 0 17 0 9 -20 -7 -20 -44
-10 -44 12 0 14 2 14 10 1 5 -8 10 -10 10 -4z m68 -3 c-2 -9 -11 -17 -21 -19
-10 -1 -16 3 -14 9 3 7 10 11 16 10 6 -2 11 2 11 7 0 6 3 10 6 10 3 0 4 -7 2
-17z m855 9 c3 7 6 4 6 -7 1 -14 -5 -21 -19 -21 -13 0 -20 7 -20 19 0 16 3 17
14 8 11 -9 15 -9 19 1z m50 0 c3 7 6 4 6 -7 1 -14 -5 -21 -19 -21 -13 0 -20 7
-20 19 0 16 3 17 14 8 11 -9 15 -9 19 1z m57 -10 c0 -11 -7 -18 -20 -18 -11 0
-20 7 -20 14 0 8 6 12 15 8 8 -3 15 -1 15 4 0 6 2 10 5 10 3 0 5 -8 5 -18z
m43 9 c4 10 6 9 6 -3 1 -12 -6 -18 -19 -18 -20 0 -26 11 -13 23 4 4 10 2 14
-4 5 -8 8 -7 12 2z m53 -4 c8 3 14 -1 14 -10 0 -10 -7 -13 -20 -10 -11 3 -20
13 -19 22 0 9 3 11 5 4 3 -7 12 -9 20 -6z m50 0 c9 3 14 -1 13 -13 0 -11 -3
-14 -5 -7 -3 7 -12 9 -20 6 -9 -3 -14 1 -13 13 0 11 3 14 5 7 3 -7 12 -9 20
-6z m37 -2 c4 -8 2 -17 -3 -20 -6 -4 -10 3 -10 14 0 25 6 27 13 6z m27 -7 c0
-18 -2 -20 -9 -8 -6 8 -7 18 -5 22 9 14 14 9 14 -14z m23 7 c4 -8 2 -17 -3
-20 -6 -4 -10 3 -10 14 0 25 6 27 13 6z m27 -7 c0 -18 -2 -20 -9 -8 -6 8 -7
18 -5 22 9 14 14 9 14 -14z m36 13 c11 9 14 8 14 -8 0 -12 -7 -19 -20 -19 -14
0 -20 7 -19 21 0 11 3 14 6 7 4 -10 8 -10 19 -1z m57 1 c3 7 6 4 6 -7 1 -14
-5 -21 -19 -21 -13 0 -20 7 -20 19 0 16 3 17 14 8 11 -9 15 -9 19 1z m50 0 c3
7 6 4 6 -7 1 -14 -5 -21 -19 -21 -13 0 -20 7 -20 19 0 16 3 17 14 8 11 -9 15
-9 19 1z m50 0 c3 7 6 4 6 -7 1 -14 -5 -21 -19 -21 -13 0 -20 7 -20 19 0 16 3
17 14 8 11 -9 15 -9 19 1z m57 -10 c0 -11 -7 -18 -20 -18 -11 0 -20 7 -20 14
0 8 6 12 15 8 8 -3 15 -1 15 4 0 6 2 10 5 10 3 0 5 -8 5 -18z m42 3 c10 2 15
-2 12 -10 -8 -19 -39 -11 -42 11 -2 12 0 15 5 8 4 -6 16 -10 25 -9z m801 0 c4
-8 2 -17 -3 -20 -6 -4 -10 3 -10 14 0 25 6 27 13 6z m27 -7 c0 -18 -2 -20 -9
-8 -6 8 -7 18 -5 22 9 14 14 9 14 -14z m50 2 c0 -9 -8 -16 -20 -16 -12 0 -20
7 -20 16 0 9 8 16 20 16 12 0 20 -7 20 -16z m-1637 -5 c3 -6 -4 -11 -14 -11
-11 0 -19 5 -19 11 0 7 7 12 15 12 8 0 16 -5 18 -12z m57 -4 c0 -4 -9 -7 -20
-8 -11 -1 -20 4 -20 12 0 8 7 11 20 8 11 -3 20 -8 20 -12z m-935 -73 c4 0 12
6 16 14 5 7 9 9 9 3 0 -33 -43 -42 -48 -10 -2 15 -1 16 6 7 5 -8 13 -14 17
-14z m75 7 c0 -7 -8 -12 -17 -11 -24 4 -27 21 -3 23 11 1 20 -4 20 -12z m24
-1 c3 -8 2 -12 -4 -9 -6 3 -10 10 -10 16 0 14 7 11 14 -7z m26 -6 c0 -19 -2
-20 -10 -8 -13 19 -13 30 0 30 6 0 10 -10 10 -22z m35 14 c-3 -3 1 -12 8 -21
10 -14 10 -14 -5 -3 -13 10 -17 10 -21 0 -3 -7 -6 -4 -6 8 -1 12 5 21 14 21 8
0 13 -3 10 -5z m1015 -4 c0 7 5 10 10 7 16 -10 12 -23 -7 -21 -9 2 -19 9 -21
17 -3 11 -1 11 7 -1 8 -11 11 -12 11 -2z m44 -4 c3 -8 2 -12 -4 -9 -6 3 -10
10 -10 16 0 14 7 11 14 -7z m26 -6 c0 -19 -2 -20 -10 -8 -13 19 -13 30 0 30 6
0 10 -10 10 -22z m24 7 c3 -8 1 -15 -4 -15 -6 0 -10 7 -10 15 0 8 2 15 4 15 2
0 6 -7 10 -15z m26 -7 c0 -19 -2 -20 -10 -8 -13 19 -13 30 0 30 6 0 10 -10 10
-22z m49 -3 c0 -11 -3 -14 -6 -7 -4 10 -8 10 -19 1 -11 -9 -14 -8 -14 8 0 12
7 19 20 19 14 0 20 -7 19 -21z m50 0 c0 -11 -3 -14 -6 -7 -4 10 -8 10 -19 1
-11 -9 -14 -8 -14 8 0 12 7 19 20 19 14 0 20 -7 19 -21z m1019 8 c-2 -9 -11
-17 -21 -19 -10 -1 -16 3 -14 9 3 7 10 11 16 10 6 -2 11 2 11 7 0 6 3 10 6 10
3 0 4 -7 2 -17z m51 -8 c0 -11 -3 -14 -6 -7 -4 10 -8 10 -19 1 -11 -9 -14 -8
-14 8 0 12 7 19 20 19 14 0 20 -7 19 -21z m51 0 c0 -17 -2 -17 -10 -5 -9 13
-11 13 -20 0 -8 -12 -10 -12 -10 5 0 14 6 21 20 21 14 0 20 -7 20 -21z m-1077
2 c3 -7 -3 -13 -13 -13 -10 0 -16 6 -13 13 3 7 9 13 13 13 4 0 10 -6 13 -13z
m-1381 -66 c16 9 19 8 15 -3 -2 -7 -10 -12 -16 -10 -6 1 -11 -4 -11 -10 0 -9
-4 -8 -10 2 -5 8 -9 20 -9 25 0 6 3 4 6 -2 3 -10 10 -10 25 -2z m68 -6 c0 -8
-7 -11 -20 -8 -11 3 -20 8 -20 12 0 4 9 7 20 8 11 1 20 -4 20 -12z m50 2 c0
-7 -9 -13 -20 -13 -11 0 -20 5 -20 11 0 6 9 11 20 12 11 1 20 -4 20 -10z m50
0 c0 -7 -9 -13 -20 -13 -11 0 -20 5 -20 11 0 6 9 11 20 12 11 1 20 -4 20 -10z
m17 -9 c-3 -8 -6 -5 -6 6 -1 11 2 17 5 13 3 -3 4 -12 1 -19z m940 7 c0 -6 -6
-12 -12 -12 -6 0 -12 6 -12 12 0 6 6 12 12 12 6 0 12 -6 12 -12z m63 -1 c0
-10 -6 -14 -15 -10 -8 3 -15 0 -15 -6 0 -6 -3 -8 -7 -4 -5 4 1 14 11 22 25 18
26 18 26 -2z m50 3 c0 -7 -9 -13 -20 -13 -11 0 -20 5 -20 11 0 6 9 11 20 12
11 1 20 -4 20 -10z m50 0 c0 -7 -9 -13 -20 -13 -11 0 -20 5 -20 11 0 6 9 11
20 12 11 1 20 -4 20 -10z m945 4 c3 -5 1 -12 -5 -16 -5 -3 -10 1 -10 9 0 18 6
21 15 7z m75 -6 c0 -8 -7 -11 -20 -8 -11 3 -20 8 -20 12 0 4 9 7 20 8 11 1 20
-4 20 -12z m50 2 c0 -7 -9 -13 -20 -13 -11 0 -20 5 -20 11 0 6 9 11 20 12 11
1 20 -4 20 -10z m50 0 c0 -7 -9 -13 -20 -13 -11 0 -20 5 -20 11 0 6 9 11 20
12 11 1 20 -4 20 -10z m-2359 -74 c8 -9 9 -14 2 -10 -6 4 -14 1 -16 -5 -3 -7
-6 -3 -6 10 -1 26 2 27 20 5z m42 2 c4 -8 2 -17 -3 -20 -6 -4 -10 3 -10 14 0
25 6 27 13 6z m27 -7 c0 -18 -2 -20 -9 -8 -6 8 -7 18 -5 22 9 14 14 9 14 -14z
m23 7 c4 -8 2 -17 -3 -20 -6 -4 -10 3 -10 14 0 25 6 27 13 6z m27 -7 c0 -18
-2 -20 -9 -8 -6 8 -7 18 -5 22 9 14 14 9 14 -14z m49 -3 c0 -11 -3 -14 -6 -7
-4 10 -8 10 -19 1 -11 -9 -14 -8 -14 8 0 12 7 19 20 19 14 0 20 -7 19 -21z
m51 5 c0 -9 -8 -16 -20 -16 -12 0 -20 7 -20 16 0 9 8 16 20 16 12 0 20 -7 20
-16z m43 12 c3 7 6 4 6 -7 1 -14 -5 -21 -19 -21 -13 0 -20 7 -20 19 0 16 3 17
14 8 11 -9 15 -9 19 1z m50 0 c3 7 6 4 6 -7 1 -14 -5 -21 -19 -21 -13 0 -20 7
-20 19 0 16 3 17 14 8 11 -9 15 -9 19 1z m43 -12 c5 1 10 -3 12 -8 2 -6 -5 -9
-15 -8 -10 2 -19 11 -21 22 -2 14 -1 16 6 6 5 -8 13 -13 18 -12z m55 6 c5 3 9
-2 9 -12 0 -13 -3 -14 -15 -4 -8 7 -15 18 -14 24 0 7 2 6 6 -2 2 -6 9 -10 14
-6z m505 -6 c5 1 10 -3 12 -8 2 -6 -5 -9 -15 -8 -10 2 -19 11 -21 22 -2 14 -1
16 6 6 5 -8 13 -13 18 -12z m44 6 c0 -6 5 -4 10 4 8 13 10 13 10 -1 0 -23 -37
-31 -43 -10 -2 11 1 18 9 18 8 0 14 -5 14 -11z m61 5 c7 11 9 10 9 -4 0 -20
-22 -19 -26 1 -2 9 -1 9 3 1 4 -8 8 -7 14 2z m319 -11 c0 -9 -8 -16 -20 -16
-12 0 -20 7 -20 16 0 9 8 16 20 16 12 0 20 -7 20 -16z m43 12 c3 7 6 4 6 -7 1
-14 -5 -21 -19 -21 -13 0 -20 7 -20 19 0 16 3 17 14 8 11 -9 15 -9 19 1z m610
0 c3 7 6 4 6 -7 1 -14 -5 -21 -19 -21 -13 0 -20 7 -20 19 0 16 3 17 14 8 11
-9 15 -9 19 1z m50 0 c3 7 6 4 6 -7 1 -14 -5 -21 -19 -21 -13 0 -20 7 -20 19
0 16 3 17 14 8 11 -9 15 -9 19 1z m28 -19 c-8 -15 -10 -15 -11 -2 0 17 10 32
18 25 2 -3 -1 -13 -7 -23z m29 12 c0 -8 -4 -15 -10 -15 -5 0 -7 7 -4 15 4 8 8
15 10 15 2 0 4 -7 4 -15z m42 6 c8 11 9 11 6 1 -4 -16 -22 -18 -24 -2 -2 7 -1
6 3 -1 4 -8 8 -7 15 2z m48 -3 c0 7 5 10 10 7 6 -3 10 -14 10 -23 0 -13 -2
-14 -9 -4 -4 8 -12 13 -17 12 -5 -1 -10 4 -12 12 -2 9 0 8 7 -2 8 -11 11 -12
11 -2z m44 -3 c3 -8 1 -15 -4 -15 -6 0 -10 7 -10 15 0 8 2 15 4 15 2 0 6 -7
10 -15z m26 -7 c0 -18 -2 -20 -9 -8 -6 8 -7 18 -5 22 9 14 14 9 14 -14z m23 7
c4 -8 2 -17 -3 -20 -6 -4 -10 3 -10 14 0 25 6 27 13 6z m27 -7 c0 -18 -2 -20
-9 -8 -6 8 -7 18 -5 22 9 14 14 9 14 -14z m23 7 c4 -8 2 -17 -3 -20 -6 -4 -10
3 -10 14 0 25 6 27 13 6z m27 -7 c0 -18 -2 -20 -9 -8 -6 8 -7 18 -5 22 9 14
14 9 14 -14z m-1900 8 c0 -3 -4 -8 -10 -11 -5 -3 -10 -1 -10 4 0 6 5 11 10 11
6 0 10 -2 10 -4z m697 -18 c-3 -8 -6 -5 -6 6 -1 11 2 17 5 13 3 -3 4 -12 1
-19z m123 12 c0 -5 -4 -10 -10 -10 -5 0 -10 5 -10 10 0 6 5 10 10 10 6 0 10
-4 10 -10z m160 -8 c0 -11 -3 -12 -14 -3 -11 9 -15 9 -19 -1 -4 -9 -6 -7 -6 4
-1 11 6 16 19 15 11 -1 20 -8 20 -15z m450 8 c0 -5 -4 -10 -10 -10 -5 0 -10 5
-10 10 0 6 5 10 10 10 6 0 10 -4 10 -10z m57 -6 c2 -5 -6 -10 -17 -11 -11 -1
-20 4 -20 12 0 15 32 14 37 -1z m-1828 -77 c0 -12 -3 -17 -5 -10 -3 7 -12 9
-20 6 -8 -3 -14 1 -14 9 0 7 9 14 20 15 15 1 20 -4 19 -20z m51 -2 c0 -17 -2
-17 -10 -5 -9 13 -11 13 -20 0 -8 -12 -10 -12 -10 5 0 14 6 21 20 21 14 0 20
-7 20 -21z m50 0 c0 -17 -2 -17 -10 -5 -9 13 -11 13 -20 0 -8 -12 -10 -12 -10
5 0 14 6 21 20 21 14 0 20 -7 20 -21z m50 0 c0 -17 -2 -17 -10 -5 -9 13 -11
13 -20 0 -8 -12 -10 -12 -10 5 0 14 6 21 20 21 14 0 20 -7 20 -21z m50 7 c0
-7 -5 -10 -11 -6 -6 3 -15 0 -20 -7 -6 -11 -9 -8 -9 8 0 16 6 21 20 20 11 -1
20 -7 20 -15z m50 1 c0 -6 -9 -11 -20 -10 -11 1 -20 7 -20 14 0 6 9 11 20 10
11 -1 20 -7 20 -14z m50 0 c0 -6 -9 -11 -20 -10 -11 1 -20 7 -20 14 0 6 9 11
20 10 11 -1 20 -7 20 -14z m50 5 c0 -15 -18 -17 -30 -3 -9 11 -8 14 9 12 12
-1 21 -5 21 -9z m58 -6 c2 -6 -5 -9 -14 -8 -10 2 -20 8 -22 14 -2 6 5 9 14 8
10 -2 20 -8 22 -14z m52 3 c0 -7 -8 -12 -17 -11 -24 4 -27 21 -3 23 11 1 20
-4 20 -12z m49 -8 c0 -12 -3 -17 -5 -10 -3 7 -12 9 -20 6 -8 -3 -14 1 -14 9 0
7 9 14 20 15 15 1 20 -4 19 -20z m50 0 c0 -12 -3 -17 -5 -10 -3 7 -12 9 -20 6
-8 -3 -14 1 -14 9 0 7 9 14 20 15 15 1 20 -4 19 -20z m51 -2 c0 -17 -2 -17
-10 -5 -9 13 -11 13 -20 0 -8 -12 -10 -12 -10 5 0 14 6 21 20 21 14 0 20 -7
20 -21z m50 0 c0 -17 -2 -17 -10 -5 -9 13 -11 13 -20 0 -8 -12 -10 -12 -10 5
0 14 6 21 20 21 14 0 20 -7 20 -21z m50 0 c0 -17 -2 -17 -10 -5 -9 13 -11 13
-20 0 -8 -12 -10 -12 -10 5 0 14 6 21 20 21 14 0 20 -7 20 -21z m50 7 c0 -8
-6 -12 -14 -9 -8 3 -17 1 -20 -6 -2 -7 -5 -2 -5 10 -1 16 4 21 19 20 11 -1 20
-8 20 -15z m50 1 c0 -6 -9 -11 -20 -10 -11 1 -20 7 -20 14 0 6 9 11 20 10 11
-1 20 -7 20 -14z m50 0 c0 -6 -9 -11 -20 -10 -11 1 -20 7 -20 14 0 6 9 11 20
10 11 -1 20 -7 20 -14z m327 -15 c-3 -7 -5 -2 -5 12 0 14 2 19 5 13 2 -7 2
-19 0 -25z m33 11 c0 -11 -4 -18 -10 -14 -5 3 -7 12 -3 20 7 21 13 19 13 -6z
m50 -4 c0 -17 -2 -17 -10 -5 -9 13 -11 13 -20 0 -8 -12 -10 -12 -10 5 0 14 6
21 20 21 14 0 20 -7 20 -21z m50 7 c0 -7 -5 -10 -11 -6 -6 3 -15 0 -20 -7 -6
-11 -9 -8 -9 8 0 16 6 21 20 20 11 -1 20 -7 20 -15z m50 1 c0 -6 -9 -11 -20
-10 -11 1 -20 7 -20 14 0 6 9 11 20 10 11 -1 20 -7 20 -14z m47 3 c-5 -15 -37
-16 -37 -1 0 8 9 13 20 12 11 -1 19 -6 17 -11z m51 2 c-2 -5 -8 -9 -13 -9 -5
0 -11 4 -13 9 -1 5 4 9 13 9 9 0 14 -4 13 -9z m62 -3 c0 -7 -8 -12 -17 -11
-24 4 -27 21 -3 23 11 1 20 -4 20 -12z m50 -8 c0 -16 -3 -18 -9 -9 -4 8 -12
13 -17 12 -5 -1 -10 2 -11 7 -2 5 6 9 17 10 14 1 20 -4 20 -20z m49 0 c0 -12
-3 -17 -5 -10 -3 7 -12 9 -20 6 -8 -3 -14 1 -14 9 0 7 9 14 20 15 15 1 20 -4
19 -20z m51 -2 c0 -15 -2 -17 -9 -6 -5 7 -14 10 -20 7 -6 -4 -11 -1 -11 6 0 8
9 14 20 14 14 0 20 -7 20 -21z m50 0 c0 -17 -2 -17 -10 -5 -9 13 -11 13 -20 0
-8 -12 -10 -12 -10 5 0 14 6 21 20 21 14 0 20 -7 20 -21z m50 0 c0 -17 -2 -17
-10 -5 -9 13 -11 13 -20 0 -8 -12 -10 -12 -10 5 0 14 6 21 20 21 14 0 20 -7
20 -21z m50 7 c0 -7 -5 -10 -11 -6 -6 3 -15 0 -20 -7 -7 -11 -9 -9 -9 6 0 14
6 21 20 21 11 0 20 -6 20 -14z m50 0 c0 -8 -6 -12 -14 -9 -8 3 -17 1 -20 -6
-2 -7 -5 -2 -5 10 -1 16 4 21 19 20 11 -1 20 -8 20 -15z m50 1 c0 -6 -9 -11
-20 -10 -11 1 -20 7 -20 14 0 6 9 11 20 10 11 -1 20 -7 20 -14z m50 5 c0 -15
-18 -17 -30 -3 -9 11 -8 14 9 12 12 -1 21 -5 21 -9z m48 0 c-2 -5 -8 -9 -13
-9 -5 0 -11 4 -13 9 -1 5 4 9 13 9 9 0 14 -4 13 -9z m62 -3 c0 -7 -8 -12 -17
-11 -24 4 -27 21 -3 23 11 1 20 -4 20 -12z m50 -8 c0 -16 -3 -18 -9 -9 -4 8
-12 13 -17 12 -5 -1 -10 2 -11 7 -2 5 6 9 17 10 14 1 20 -4 20 -20z m49 0 c0
-12 -3 -17 -5 -10 -3 7 -12 9 -20 6 -8 -3 -14 1 -14 9 0 7 9 14 20 15 15 1 20
-4 19 -20z m26 14 c3 -5 1 -12 -5 -16 -5 -3 -10 1 -10 9 0 18 6 21 15 7z m25
-12 c0 -11 -4 -18 -10 -14 -5 3 -7 12 -3 20 7 21 13 19 13 -6z m-2304 -62 c8
3 14 -1 14 -9 0 -7 -9 -14 -20 -14 -14 0 -20 7 -19 21 0 11 3 15 5 8 3 -7 12
-9 20 -6z m50 0 c8 3 14 -1 14 -9 0 -7 -9 -14 -20 -14 -14 0 -20 7 -19 21 0
11 3 15 5 8 3 -7 12 -9 20 -6z m50 0 c8 3 14 -1 14 -9 0 -7 -9 -14 -20 -14
-14 0 -20 7 -19 21 0 11 3 15 5 8 3 -7 12 -9 20 -6z m57 5 c3 7 6 4 6 -7 1
-14 -5 -21 -19 -21 -13 0 -20 7 -20 19 0 16 3 17 14 8 11 -9 15 -9 19 1z m50
0 c3 7 6 4 6 -7 1 -14 -5 -21 -19 -21 -13 0 -20 7 -20 19 0 16 3 17 14 8 11
-9 15 -9 19 1z m57 -10 c0 -11 -7 -18 -20 -18 -11 0 -20 7 -20 14 0 8 6 12 15
8 8 -3 15 -1 15 4 0 6 2 10 5 10 3 0 5 -8 5 -18z m50 0 c0 -11 -7 -18 -20 -18
-11 0 -20 7 -20 14 0 8 6 12 15 8 8 -3 15 -1 15 4 0 6 2 10 5 10 3 0 5 -8 5
-18z m50 0 c0 -11 -7 -18 -20 -18 -11 0 -20 7 -20 14 0 8 6 12 15 8 8 -3 15
-1 15 4 0 6 2 10 5 10 3 0 5 -8 5 -18z m183 3 c4 -8 2 -17 -3 -20 -6 -4 -10 3
-10 14 0 25 6 27 13 6z m63 2 c8 3 14 -1 14 -9 0 -7 -9 -14 -20 -14 -14 0 -20
7 -19 21 0 11 3 15 5 8 3 -7 12 -9 20 -6z m50 4 c11 9 14 8 14 -8 0 -12 -7
-19 -20 -19 -14 0 -20 7 -19 21 0 11 3 14 6 7 4 -10 8 -10 19 -1z m57 1 c3 7
6 4 6 -7 1 -14 -5 -21 -19 -21 -13 0 -20 7 -20 19 0 16 3 17 14 8 11 -9 15 -9
19 1z m50 0 c3 7 6 4 6 -7 1 -14 -5 -21 -19 -21 -13 0 -20 7 -20 19 0 16 3 17
14 8 11 -9 15 -9 19 1z m57 -10 c0 -11 -7 -18 -20 -18 -11 0 -20 7 -20 14 0 8
6 12 15 8 8 -3 15 -1 15 4 0 6 2 10 5 10 3 0 5 -8 5 -18z m50 0 c0 -11 -7 -18
-20 -18 -11 0 -20 7 -20 14 0 8 6 12 15 8 8 -3 15 -1 15 4 0 6 2 10 5 10 3 0
5 -8 5 -18z m510 0 c0 -11 -7 -18 -20 -18 -11 0 -20 7 -20 14 0 8 6 12 15 8 8
-3 15 -1 15 4 0 6 2 10 5 10 3 0 5 -8 5 -18z m50 0 c0 -11 -7 -18 -20 -18 -11
0 -20 7 -20 14 0 8 6 12 15 8 8 -3 15 -1 15 4 0 6 2 10 5 10 3 0 5 -8 5 -18z
m233 3 c4 -8 2 -17 -3 -20 -6 -4 -10 3 -10 14 0 25 6 27 13 6z m63 2 c8 3 14
-1 14 -9 0 -7 -9 -14 -20 -14 -14 0 -20 7 -19 21 0 11 3 15 5 8 3 -7 12 -9 20
-6z m54 3 c8 12 10 12 10 -5 0 -14 -6 -21 -20 -21 -14 0 -20 7 -20 21 0 17 2
17 10 5 9 -13 11 -13 20 0z m53 2 c3 7 6 4 6 -7 1 -14 -5 -21 -19 -21 -13 0
-20 7 -20 19 0 16 3 17 14 8 11 -9 15 -9 19 1z m50 0 c3 7 6 4 6 -7 1 -14 -5
-21 -19 -21 -13 0 -20 7 -20 19 0 16 3 17 14 8 11 -9 15 -9 19 1z m57 -10 c0
-11 -7 -18 -20 -18 -11 0 -20 7 -20 14 0 8 6 12 15 8 8 -3 15 -1 15 4 0 6 2
10 5 10 3 0 5 -8 5 -18z m50 0 c0 -11 -7 -18 -20 -18 -11 0 -20 7 -20 14 0 8
6 12 15 8 8 -3 15 -1 15 4 0 6 2 10 5 10 3 0 5 -8 5 -18z m233 3 c4 -8 2 -17
-3 -20 -6 -4 -10 3 -10 14 0 25 6 27 13 6z m-2266 -8 c-2 -6 -10 -11 -19 -13
-10 -1 -15 3 -12 10 6 15 36 17 31 3z m453 1 c0 -4 -7 -8 -15 -8 -8 0 -15 4
-15 8 0 5 7 9 15 9 8 0 15 -4 15 -9z m54 -4 c3 -7 -2 -10 -15 -7 -22 6 -26 20
-4 20 8 0 16 -6 19 -13z m56 1 c0 -8 -7 -11 -20 -8 -11 3 -20 8 -20 12 0 4 9
7 20 8 11 1 20 -4 20 -12z m50 0 c0 -8 -2 -15 -4 -15 -2 0 -6 7 -10 15 -3 8
-1 15 4 15 6 0 10 -7 10 -15z m547 0 c0 -8 -4 -12 -9 -9 -5 3 -6 10 -3 15 9
13 12 11 12 -6z m363 4 c0 -4 -9 -9 -20 -12 -13 -3 -20 0 -20 8 0 8 9 13 20
12 11 -1 20 -4 20 -8z m50 -1 c0 -4 -7 -8 -15 -8 -8 0 -15 4 -15 8 0 5 7 9 15
9 8 0 15 -4 15 -9z m60 -3 c0 -8 -7 -11 -20 -8 -11 3 -20 8 -20 12 0 4 9 7 20
8 11 1 20 -4 20 -12z m49 -3 c0 -10 -3 -12 -5 -5 -3 7 -12 9 -20 6 -8 -3 -14
-1 -14 4 0 5 9 9 20 10 13 1 20 -4 19 -15z m51 3 c0 -8 -2 -15 -4 -15 -2 0 -6
7 -10 15 -3 8 -1 15 4 15 6 0 10 -7 10 -15z m350 3 c0 -11 -28 -10 -35 1 -3 6
4 9 15 8 11 -1 20 -5 20 -9z m50 0 c0 -4 -7 -8 -15 -8 -8 0 -15 4 -15 8 0 5 7
9 15 9 8 0 15 -4 15 -9z m60 -3 c0 -8 -7 -11 -20 -8 -11 3 -20 8 -20 12 0 4 9
7 20 8 11 1 20 -4 20 -12z m49 -3 c0 -10 -3 -12 -5 -5 -3 7 -12 9 -20 6 -8 -3
-14 -1 -14 4 0 5 9 9 20 10 13 1 20 -4 19 -15z m51 3 c0 -8 -2 -15 -4 -15 -2
0 -6 7 -10 15 -3 8 -1 15 4 15 6 0 10 -7 10 -15z m40 4 c0 -4 -7 -9 -15 -13
-9 -3 -15 0 -15 8 0 7 7 13 15 13 8 0 15 -4 15 -8z m-2356 -75 c3 -8 2 -12 -4
-9 -6 3 -10 10 -10 16 0 14 7 11 14 -7z m26 -6 c0 -19 -2 -20 -10 -8 -13 19
-13 30 0 30 6 0 10 -10 10 -22z m23 7 c4 -8 2 -17 -3 -20 -6 -4 -10 3 -10 14
0 25 6 27 13 6z m27 -7 c0 -19 -2 -20 -10 -8 -13 19 -13 30 0 30 6 0 10 -10
10 -22z m23 7 c4 -8 2 -17 -3 -20 -6 -4 -10 3 -10 14 0 25 6 27 13 6z m27 -7
c0 -18 -2 -20 -9 -8 -6 8 -7 18 -5 22 9 14 14 9 14 -14z m49 -3 c0 -11 -3 -14
-6 -7 -4 10 -8 10 -19 1 -11 -9 -14 -8 -14 8 0 12 7 19 20 19 14 0 20 -7 19
-21z m50 0 c0 -11 -3 -14 -6 -7 -4 10 -8 10 -19 1 -11 -9 -14 -8 -14 8 0 12 7
19 20 19 14 0 20 -7 19 -21z m51 2 c0 -16 -3 -17 -14 -8 -11 9 -15 9 -19 -1
-3 -7 -6 -4 -6 7 -1 14 5 21 19 21 13 0 20 -7 20 -19z m50 0 c0 -16 -3 -17
-14 -8 -11 9 -15 9 -19 -1 -3 -7 -6 -4 -6 7 -1 14 5 21 19 21 13 0 20 -7 20
-19z m50 0 c0 -16 -3 -17 -14 -8 -11 9 -15 9 -19 -1 -3 -7 -6 -4 -6 7 -1 14 5
21 19 21 13 0 20 -7 20 -19z m30 16 c0 -5 -5 -15 -10 -23 -8 -12 -10 -11 -10
8 0 12 5 22 10 22 6 0 10 -3 10 -7z m20 -14 c0 -11 -4 -18 -10 -14 -5 3 -7 12
-3 20 7 21 13 19 13 -6z m42 12 c8 11 9 11 6 1 -4 -16 -22 -18 -24 -2 -2 7 -1
6 3 -1 4 -8 8 -7 15 2z m58 -23 c0 -5 -7 -3 -15 6 -8 8 -15 18 -15 22 0 3 7 1
15 -6 8 -7 15 -17 15 -22z m209 7 c0 -11 -3 -14 -6 -7 -4 10 -8 10 -19 1 -11
-9 -14 -8 -14 8 0 12 7 19 20 19 14 0 20 -7 19 -21z m51 5 c0 -9 -8 -16 -20
-16 -12 0 -20 7 -20 16 0 9 8 16 20 16 12 0 20 -7 20 -16z m50 -3 c0 -16 -3
-17 -14 -8 -11 9 -15 9 -19 -1 -3 -7 -6 -4 -6 7 -1 14 5 21 19 21 13 0 20 -7
20 -19z m23 -2 c-7 -21 -13 -19 -13 6 0 11 4 18 10 14 5 -3 7 -12 3 -20z m27
4 c0 -11 -4 -18 -10 -14 -5 3 -7 12 -3 20 7 21 13 19 13 -6z m30 14 c0 -5 -5
-15 -10 -23 -8 -12 -10 -11 -10 8 0 12 5 22 10 22 6 0 10 -3 10 -7z m20 -14
c0 -11 -4 -18 -10 -14 -5 3 -7 12 -3 20 7 21 13 19 13 -6z m185 -1 c4 0 12 6
17 14 7 9 8 8 6 -7 -5 -32 -48 -23 -48 10 0 6 4 4 9 -3 4 -8 12 -14 16 -14z
m48 7 c4 -8 2 -17 -3 -20 -6 -4 -10 3 -10 14 0 25 6 27 13 6z m27 -7 c0 -18
-2 -20 -9 -8 -6 8 -7 18 -5 22 9 14 14 9 14 -14z m40 2 c0 -4 -6 -10 -13 -13
-7 -3 -13 3 -13 13 0 10 6 16 13 13 7 -3 13 -9 13 -13z m183 -5 c-7 -21 -13
-19 -13 6 0 11 4 18 10 14 5 -3 7 -12 3 -20z m27 4 c0 -11 -4 -18 -10 -14 -5
3 -7 12 -3 20 7 21 13 19 13 -6z m30 14 c0 -5 -5 -15 -10 -23 -8 -12 -10 -11
-10 8 0 12 5 22 10 22 6 0 10 -3 10 -7z m20 -14 c0 -11 -4 -18 -10 -14 -5 3
-7 12 -3 20 7 21 13 19 13 -6z m30 14 c0 -5 -5 -15 -10 -23 -8 -12 -10 -11
-10 8 0 12 5 22 10 22 6 0 10 -3 10 -7z m20 -8 c0 -8 -4 -15 -10 -15 -5 0 -7
7 -4 15 4 8 8 15 10 15 2 0 4 -7 4 -15z m42 6 c8 11 9 11 6 1 -4 -16 -22 -18
-24 -2 -2 7 -1 6 3 -1 4 -8 8 -7 15 2z m42 -7 c3 -8 2 -12 -4 -9 -6 3 -10 10
-10 16 0 14 7 11 14 -7z m26 -6 c0 -19 -2 -20 -10 -8 -13 19 -13 30 0 30 6 0
10 -10 10 -22z m24 7 c3 -8 1 -15 -4 -15 -6 0 -10 7 -10 15 0 8 2 15 4 15 2 0
6 -7 10 -15z m26 -7 c0 -19 -2 -20 -10 -8 -13 19 -13 30 0 30 6 0 10 -10 10
-22z m23 7 c4 -8 2 -17 -3 -20 -6 -4 -10 3 -10 14 0 25 6 27 13 6z m27 -7 c0
-18 -2 -20 -9 -8 -6 8 -7 18 -5 22 9 14 14 9 14 -14z m23 7 c4 -8 2 -17 -3
-20 -6 -4 -10 3 -10 14 0 25 6 27 13 6z m27 -7 c0 -18 -2 -20 -9 -8 -6 8 -7
18 -5 22 9 14 14 9 14 -14z m241 13 c6 10 9 7 9 -10 0 -20 -2 -21 -15 -11 -8
7 -15 18 -14 24 0 6 3 5 6 -3 5 -11 7 -11 14 0z m39 -3 c0 -9 4 -8 10 2 8 13
10 12 10 -2 0 -22 -13 -23 -30 -3 -9 10 -9 15 -1 15 6 0 11 -6 11 -12z m62 3
c8 11 9 11 6 1 -4 -16 -22 -18 -24 -2 -2 7 -1 6 3 -1 4 -8 8 -7 15 2z m42 -7
c3 -8 2 -12 -4 -9 -6 3 -10 10 -10 16 0 14 7 11 14 -7z m26 -6 c0 -19 -2 -20
-10 -8 -13 19 -13 30 0 30 6 0 10 -10 10 -22z m24 7 c3 -8 1 -15 -4 -15 -6 0
-10 7 -10 15 0 8 2 15 4 15 2 0 6 -7 10 -15z m26 -7 c0 -19 -2 -20 -10 -8 -13
19 -13 30 0 30 6 0 10 -10 10 -22z m23 7 c4 -8 2 -17 -3 -20 -6 -4 -10 3 -10
14 0 25 6 27 13 6z m27 -7 c0 -18 -2 -20 -9 -8 -6 8 -7 18 -5 22 9 14 14 9 14
-14z m49 -3 c0 -11 -3 -14 -6 -7 -4 10 -8 10 -19 1 -11 -9 -14 -8 -14 8 0 12
7 19 20 19 14 0 20 -7 19 -21z m-519 6 c0 -5 -7 -11 -14 -14 -10 -4 -13 -1 -9
9 6 15 23 19 23 5z m-1820 -76 c0 -7 -8 -12 -17 -11 -24 4 -27 21 -3 23 11 1
20 -4 20 -12z m50 2 c0 -7 -9 -13 -20 -13 -11 0 -20 5 -20 11 0 6 9 11 20 12
11 1 20 -4 20 -10z m50 -10 c0 -16 -3 -19 -9 -8 -5 7 -14 10 -20 7 -6 -4 -11
-1 -11 6 0 8 9 14 20 15 14 1 20 -4 20 -20z m50 8 c0 -6 -9 -11 -20 -11 -11 0
-20 5 -20 11 0 6 9 11 20 11 11 0 20 -5 20 -11z m50 0 c0 -6 -9 -11 -20 -11
-11 0 -20 5 -20 11 0 6 9 11 20 11 11 0 20 -5 20 -11z m50 -3 c0 -7 -5 -10
-11 -6 -6 3 -15 0 -20 -7 -6 -11 -9 -8 -9 8 0 16 6 21 20 20 11 -1 20 -7 20
-15z m50 3 c0 -6 -9 -11 -20 -11 -11 0 -20 6 -20 13 0 6 9 11 20 10 11 -1 20
-6 20 -12z m24 0 c-4 -8 -8 -15 -10 -15 -2 0 -4 7 -4 15 0 8 4 15 10 15 5 0 7
-7 4 -15z m23 -17 c-3 -7 -5 -2 -5 12 0 14 2 19 5 13 2 -7 2 -19 0 -25z m363
18 c0 -7 -9 -16 -20 -19 -13 -3 -20 0 -20 8 0 8 8 16 18 18 9 3 18 5 20 6 1 0
2 -5 2 -13z m50 -4 c0 -7 -5 -10 -11 -6 -6 3 -15 0 -20 -7 -7 -11 -9 -9 -9 6
0 14 6 21 20 21 11 0 20 -6 20 -14z m50 3 c0 -6 -9 -11 -20 -11 -11 0 -20 6
-20 13 0 6 9 11 20 10 11 -1 20 -6 20 -12z m50 0 c0 -6 -9 -11 -20 -11 -11 0
-20 6 -20 13 0 6 9 11 20 10 11 -1 20 -6 20 -12z m50 0 c0 -6 -9 -11 -20 -11
-11 0 -20 6 -20 13 0 6 9 11 20 10 11 -1 20 -6 20 -12z m36 -5 c5 1 10 -4 12
-12 2 -9 0 -8 -7 2 -10 13 -11 13 -11 0 0 -13 -1 -13 -10 0 -5 8 -10 20 -10
25 0 6 4 4 9 -3 4 -8 12 -13 17 -12z m111 3 c0 -9 -4 -10 -14 -2 -7 6 -13 12
-13 14 0 1 6 2 13 2 8 0 14 -6 14 -14z m63 2 c0 -8 -7 -11 -20 -8 -11 3 -20 8
-20 12 0 4 9 7 20 8 11 1 20 -4 20 -12z m50 2 c0 -7 -9 -13 -20 -13 -11 0 -20
5 -20 11 0 6 9 11 20 12 11 1 20 -4 20 -10z m50 0 c0 -7 -9 -13 -20 -13 -11 0
-20 5 -20 11 0 6 9 11 20 12 11 1 20 -4 20 -10z m150 -2 c0 -6 -9 -11 -20 -11
-11 0 -20 6 -20 13 0 6 9 11 20 10 11 -1 20 -6 20 -12z m50 0 c0 -6 -9 -11
-20 -11 -11 0 -20 6 -20 13 0 6 9 11 20 10 11 -1 20 -6 20 -12z m50 0 c0 -6
-9 -11 -20 -11 -11 0 -20 6 -20 13 0 6 9 11 20 10 11 -1 20 -6 20 -12z m50 4
c0 -4 -9 -9 -20 -12 -13 -3 -20 0 -20 8 0 8 9 13 20 12 11 -1 20 -4 20 -8z
m50 -1 c0 -4 -7 -8 -15 -8 -8 0 -15 4 -15 8 0 5 7 9 15 9 8 0 15 -4 15 -9z
m60 -3 c0 -8 -7 -11 -20 -8 -11 3 -20 8 -20 12 0 4 9 7 20 8 11 1 20 -4 20
-12z m50 0 c0 -8 -7 -11 -20 -8 -11 3 -20 8 -20 12 0 4 9 7 20 8 11 1 20 -4
20 -12z m450 3 c0 -4 -7 -8 -15 -8 -8 0 -15 4 -15 8 0 5 7 9 15 9 8 0 15 -4
15 -9z m60 -3 c0 -8 -7 -11 -20 -8 -11 3 -20 8 -20 12 0 4 9 7 20 8 11 1 20
-4 20 -12z m50 0 c0 -8 -7 -11 -20 -8 -11 3 -20 8 -20 12 0 4 9 7 20 8 11 1
20 -4 20 -12z m50 2 c0 -7 -9 -13 -20 -13 -11 0 -20 5 -20 11 0 6 9 11 20 12
11 1 20 -4 20 -10z m25 4 c3 -5 1 -12 -5 -16 -5 -3 -10 1 -10 9 0 18 6 21 15
7z m-2292 -76 c4 -8 2 -17 -3 -20 -6 -4 -10 3 -10 14 0 25 6 27 13 6z m50 0
c4 -8 2 -17 -3 -20 -6 -4 -10 3 -10 14 0 25 6 27 13 6z m27 -7 c0 -18 -2 -20
-9 -8 -6 8 -7 18 -5 22 9 14 14 9 14 -14z m23 7 c4 -8 2 -17 -3 -20 -6 -4 -10
3 -10 14 0 25 6 27 13 6z m27 -7 c0 -18 -2 -20 -9 -8 -6 8 -7 18 -5 22 9 14
14 9 14 -14z m23 -3 c-7 -21 -13 -19 -13 6 0 11 4 18 10 14 5 -3 7 -12 3 -20z
m510 0 c-7 -21 -13 -19 -13 6 0 11 4 18 10 14 5 -3 7 -12 3 -20z m70 17 c3 7
6 4 6 -7 1 -14 -5 -21 -19 -21 -13 0 -20 7 -20 19 0 16 3 17 14 8 11 -9 15 -9
19 1z m50 0 c3 7 6 4 6 -7 1 -14 -5 -21 -19 -21 -13 0 -20 7 -20 19 0 16 3 17
14 8 11 -9 15 -9 19 1z m50 0 c3 7 6 4 6 -7 1 -14 -5 -21 -19 -21 -13 0 -20 7
-20 19 0 16 3 17 14 8 11 -9 15 -9 19 1z m57 -10 c0 -11 -7 -18 -20 -18 -11 0
-20 7 -20 14 0 8 6 12 15 8 8 -3 15 -1 15 4 0 6 2 10 5 10 3 0 5 -8 5 -18z
m50 4 c0 -7 -9 -16 -20 -19 -13 -3 -20 0 -20 10 0 9 6 13 15 9 8 -3 15 -1 15
4 0 6 2 10 5 10 3 0 5 -6 5 -14z m50 -1 c0 -8 -7 -15 -15 -15 -8 0 -15 5 -15
11 0 5 5 7 10 4 6 -3 10 -1 10 4 0 6 2 11 5 11 3 0 5 -7 5 -15z m46 -5 c5 1 9
-3 10 -9 2 -7 0 -7 -2 -2 -3 6 -12 7 -20 4 -9 -3 -14 1 -14 13 0 14 2 16 9 6
4 -8 12 -13 17 -12z m50 7 c9 3 14 -1 13 -13 0 -11 -3 -14 -5 -7 -3 7 -12 9
-20 6 -9 -3 -14 1 -13 13 0 11 3 14 5 7 3 -7 12 -9 20 -6z m37 -2 c4 -8 2 -17
-3 -20 -6 -4 -10 3 -10 14 0 25 6 27 13 6z m27 -7 c0 -18 -2 -20 -9 -8 -6 8
-7 18 -5 22 9 14 14 9 14 -14z m23 7 c4 -8 2 -17 -3 -20 -6 -4 -10 3 -10 14 0
25 6 27 13 6z m27 -7 c0 -18 -2 -20 -9 -8 -6 8 -7 18 -5 22 9 14 14 9 14 -14z
m36 13 c11 9 14 8 14 -8 0 -12 -7 -19 -20 -19 -14 0 -20 7 -19 21 0 11 3 14 6
7 4 -10 8 -10 19 -1z m57 1 c3 7 6 4 6 -7 1 -14 -5 -21 -19 -21 -13 0 -20 7
-20 19 0 16 3 17 14 8 11 -9 15 -9 19 1z m50 0 c3 7 6 4 6 -7 1 -14 -5 -21
-19 -21 -13 0 -20 7 -20 19 0 16 3 17 14 8 11 -9 15 -9 19 1z m50 0 c3 7 6 4
6 -7 1 -14 -5 -21 -19 -21 -13 0 -20 7 -20 19 0 16 3 17 14 8 11 -9 15 -9 19
1z m57 -10 c0 -11 -7 -18 -20 -18 -11 0 -20 7 -20 14 0 8 6 12 15 8 8 -3 15
-1 15 4 0 6 2 10 5 10 3 0 5 -8 5 -18z m50 4 c0 -7 -9 -16 -20 -19 -13 -3 -20
0 -20 10 0 9 6 13 15 9 8 -3 15 -1 15 4 0 6 2 10 5 10 3 0 5 -6 5 -14z m41 5
c7 11 9 10 9 -3 0 -10 -7 -18 -15 -18 -8 0 -15 8 -14 18 0 12 2 13 6 3 5 -11
7 -11 14 0z m55 -4 c9 3 14 -1 13 -13 0 -11 -3 -14 -5 -7 -3 7 -12 9 -20 6 -9
-3 -14 1 -13 13 0 11 3 14 5 7 3 -7 12 -9 20 -6z m50 0 c9 3 14 -1 13 -13 0
-11 -3 -14 -5 -7 -3 7 -12 9 -20 6 -9 -3 -14 1 -13 13 0 11 3 14 5 7 3 -7 12
-9 20 -6z m455 4 c7 11 9 10 9 -3 0 -10 -7 -18 -15 -18 -8 0 -15 8 -14 18 0
12 2 13 6 3 5 -11 7 -11 14 0z m55 -4 c9 3 14 -1 14 -13 0 -14 -2 -16 -9 -6
-4 8 -12 13 -17 12 -5 -1 -9 3 -10 10 -2 6 0 6 2 1 3 -6 12 -7 20 -4z m-2126
-12 c0 -8 -2 -15 -4 -15 -2 0 -6 7 -10 15 -3 8 -1 15 4 15 6 0 10 -7 10 -15z
m150 -1 c0 -8 -5 -12 -10 -9 -6 4 -8 11 -5 16 9 14 15 11 15 -7z m50 1 c0 -6
-9 -11 -20 -12 -11 -1 -20 4 -20 10 0 7 9 13 20 13 11 0 20 -5 20 -11z m460 0
c0 -8 -4 -15 -10 -15 -5 0 -7 7 -4 15 4 8 8 15 10 15 2 0 4 -7 4 -15z m-1 -80
c0 -11 -3 -14 -6 -7 -4 10 -8 10 -19 1 -11 -9 -14 -8 -14 8 0 12 7 19 20 19
14 0 20 -7 19 -21z m51 0 c0 -17 -2 -17 -10 -5 -9 13 -11 13 -20 0 -8 -12 -10
-12 -10 5 0 14 6 21 20 21 14 0 20 -7 20 -21z m50 2 c0 -16 -3 -17 -14 -8 -11
9 -15 9 -19 -1 -3 -7 -6 -4 -6 7 -1 14 5 21 19 21 13 0 20 -7 20 -19z m50 0
c0 -16 -3 -17 -14 -8 -11 9 -15 9 -19 -1 -3 -7 -6 -4 -6 7 -1 14 5 21 19 21
13 0 20 -7 20 -19z m50 0 c0 -16 -3 -17 -14 -8 -11 9 -15 9 -19 -1 -3 -7 -6
-3 -6 9 -1 16 4 21 19 20 12 -1 20 -8 20 -20z m50 6 c0 -6 -9 -11 -20 -10 -11
1 -20 7 -20 14 0 6 9 11 20 10 11 -1 20 -7 20 -14z m48 5 c-2 -5 -8 -9 -13 -9
-5 0 -11 4 -13 9 -1 5 4 9 13 9 9 0 14 -4 13 -9z m42 0 c0 6 5 12 10 12 6 0
10 -6 10 -14 0 -18 -33 -14 -38 5 -3 11 -1 11 7 -1 7 -10 11 -11 11 -2z m44
-4 c3 -8 2 -12 -4 -9 -6 3 -10 10 -10 16 0 14 7 11 14 -7z m29 -5 c-4 -16 -8
-17 -14 -7 -13 19 -11 28 5 28 9 0 12 -7 9 -21z m67 11 c9 -6 17 -5 22 3 5 8
8 4 8 -10 0 -16 -6 -21 -20 -20 -11 1 -20 8 -20 17 0 13 -2 13 -9 1 -11 -18
-44 -24 -38 -8 3 7 10 11 16 10 6 -2 11 2 11 7 0 12 10 13 30 0z m79 -15 c0
-11 -3 -14 -6 -7 -4 10 -8 10 -19 1 -11 -9 -14 -8 -14 8 0 12 7 19 20 19 14 0
20 -7 19 -21z m51 0 c0 -17 -2 -17 -10 -5 -9 13 -11 13 -20 0 -8 -12 -10 -12
-10 5 0 14 6 21 20 21 14 0 20 -7 20 -21z m200 13 c0 -15 -18 -17 -30 -3 -9
11 -8 14 9 12 12 -1 21 -5 21 -9z m42 3 c8 11 9 11 6 1 -4 -16 -22 -18 -24 -2
-2 7 -1 6 3 -1 4 -8 8 -7 15 2z m48 -3 c0 6 5 12 10 12 6 0 10 -6 10 -14 0
-18 -33 -14 -38 5 -3 11 -1 11 7 -1 7 -10 11 -11 11 -2z m44 -4 c3 -8 2 -12
-4 -9 -6 3 -10 10 -10 16 0 14 7 11 14 -7z m26 -6 c0 -19 -2 -20 -10 -8 -13
19 -13 30 0 30 6 0 10 -10 10 -22z m-920 -73 c0 -6 -9 -11 -20 -11 -11 0 -20
5 -20 11 0 6 9 11 20 11 11 0 20 -5 20 -11z m50 0 c0 -6 -9 -11 -20 -11 -11 0
-20 6 -20 13 0 6 9 11 20 10 11 -1 20 -6 20 -12z m50 -8 c0 -2 -9 -3 -20 -4
-12 -1 -20 4 -20 13 0 12 4 12 20 4 11 -6 20 -12 20 -13z m150 11 c0 -4 -7 -8
-15 -8 -8 0 -15 4 -15 8 0 5 7 9 15 9 8 0 15 -4 15 -9z m63 -4 c-2 -6 -13 -10
-24 -7 -27 7 -24 19 5 19 14 0 22 -5 19 -12z m47 0 c0 -10 -6 -14 -14 -11 -8
3 -17 2 -20 -4 -2 -5 -3 -4 -1 3 1 7 8 12 14 11 6 -2 11 2 11 7 0 6 2 10 5 10
3 0 5 -7 5 -16z m150 1 c0 -6 -9 -11 -20 -11 -11 0 -20 5 -20 11 0 6 9 11 20
11 11 0 20 -5 20 -11z m50 0 c0 -6 -9 -11 -20 -11 -11 0 -20 5 -20 11 0 6 9
11 20 11 11 0 20 -5 20 -11z m180 0 c5 3 11 1 14 -4 4 -5 -2 -8 -11 -7 -9 2
-18 8 -19 15 -1 6 0 7 3 1 2 -5 9 -8 13 -5z m70 3 c0 -4 -7 -8 -15 -8 -8 0
-15 4 -15 8 0 5 7 9 15 9 8 0 15 -4 15 -9z m60 -3 c0 -8 -7 -11 -20 -8 -11 3
-20 8 -20 12 0 4 9 7 20 8 11 1 20 -4 20 -12z m25 6 c3 -5 1 -12 -5 -16 -5 -3
-10 1 -10 9 0 18 6 21 15 7z m-700 -11 c3 -6 -1 -7 -9 -4 -18 7 -21 14 -7 14
6 0 13 -4 16 -10z m-195 -70 c0 -9 -8 -16 -20 -16 -12 0 -20 7 -20 16 0 9 8
16 20 16 12 0 20 -7 20 -16z m43 12 c3 7 6 4 6 -7 1 -14 -5 -21 -19 -21 -13 0
-20 7 -20 19 0 16 3 17 14 8 11 -9 15 -9 19 1z m50 0 c3 7 6 4 6 -7 1 -14 -5
-21 -19 -21 -13 0 -20 7 -20 19 0 16 3 17 14 8 11 -9 15 -9 19 1z m149 -1 c8
11 9 11 6 1 -4 -16 -22 -18 -24 -3 -2 8 -1 7 3 0 4 -8 8 -7 15 2z m48 -3 c0 7
5 10 10 7 6 -3 10 -14 10 -23 0 -13 -2 -14 -9 -4 -4 8 -12 13 -17 12 -5 -1
-10 4 -12 12 -2 9 0 8 7 -2 8 -11 11 -12 11 -2z m44 -3 c3 -8 1 -15 -4 -15 -6
0 -10 7 -10 15 0 8 2 15 4 15 2 0 6 -7 10 -15z m26 -7 c0 -18 -2 -20 -9 -8 -6
8 -7 18 -5 22 9 14 14 9 14 -14z m149 -3 c0 -11 -3 -14 -6 -7 -4 10 -8 10 -19
1 -11 -9 -14 -8 -14 8 0 12 7 19 20 19 14 0 20 -7 19 -21z m51 5 c0 -9 -8 -16
-20 -16 -12 0 -20 7 -20 16 0 9 8 16 20 16 12 0 20 -7 20 -16z m123 -5 c-7
-21 -13 -19 -13 6 0 11 4 18 10 14 5 -3 7 -12 3 -20z m27 4 c0 -11 -4 -18 -10
-14 -5 3 -7 12 -3 20 7 21 13 19 13 -6z m21 -6 c-8 -15 -10 -15 -11 -2 0 17
10 32 18 25 2 -3 -1 -13 -7 -23z m29 12 c0 -8 -4 -15 -10 -15 -5 0 -7 7 -4 15
4 8 8 15 10 15 2 0 4 -7 4 -15z m42 6 c8 11 9 11 6 1 -4 -16 -22 -18 -24 -3
-2 8 -1 7 3 0 4 -8 8 -7 15 2z m42 -16 c-4 -8 -8 -15 -10 -15 -2 0 -4 7 -4 15
0 8 4 15 10 15 5 0 7 -7 4 -15z m-844 -80 c0 -17 -2 -17 -10 -5 -9 13 -11 13
-20 0 -8 -12 -10 -12 -10 5 0 14 6 21 20 21 14 0 20 -7 20 -21z m50 0 c0 -17
-2 -17 -10 -5 -9 13 -11 13 -20 0 -8 -12 -10 -12 -10 5 0 14 6 21 20 21 14 0
20 -7 20 -21z m50 7 c0 -7 -5 -10 -11 -6 -6 3 -15 0 -20 -7 -6 -11 -9 -8 -9 8
0 16 6 21 20 20 11 -1 20 -7 20 -15z m148 6 c-2 -5 -8 -9 -13 -9 -5 0 -11 4
-13 9 -1 5 4 9 13 9 9 0 14 -4 13 -9z m60 -6 c2 -6 -5 -9 -14 -8 -10 2 -20 8
-22 14 -2 6 5 9 14 8 10 -2 20 -8 22 -14z m52 3 c0 -7 -8 -12 -17 -11 -24 4
-27 21 -3 23 11 1 20 -4 20 -12z m150 -10 c0 -17 -2 -17 -10 -5 -9 13 -11 13
-20 0 -8 -12 -10 -12 -10 5 0 14 6 21 20 21 14 0 20 -7 20 -21z m50 0 c0 -17
-2 -17 -10 -5 -9 13 -11 13 -20 0 -8 -12 -10 -12 -10 5 0 14 6 21 20 21 14 0
20 -7 20 -21z m150 8 c0 -6 -9 -11 -20 -10 -11 1 -20 7 -20 14 0 6 9 11 20 10
11 -1 20 -7 20 -14z m47 3 c-5 -15 -37 -16 -37 -1 0 8 9 13 20 12 11 -1 19 -6
17 -11z m51 2 c-2 -5 -8 -9 -13 -9 -5 0 -11 4 -13 9 -1 5 4 9 13 9 9 0 14 -4
13 -9z m-613 -8 c3 -6 -1 -7 -9 -4 -18 7 -21 14 -7 14 6 0 13 -4 16 -10z
m-202 -58 c3 7 6 4 6 -7 1 -14 -5 -21 -19 -21 -13 0 -20 7 -20 19 0 16 3 17
14 8 11 -9 15 -9 19 1z m50 0 c3 7 6 4 6 -7 1 -14 -5 -21 -19 -21 -13 0 -20 7
-20 19 0 16 3 17 14 8 11 -9 15 -9 19 1z m57 -10 c0 -11 -7 -18 -20 -18 -11 0
-20 7 -20 14 0 8 6 12 15 8 8 -3 15 -1 15 4 0 6 2 10 5 10 3 0 5 -8 5 -18z
m396 5 c8 3 14 -1 14 -9 0 -7 -9 -14 -20 -14 -14 0 -20 7 -19 21 0 11 3 15 5
8 3 -7 12 -9 20 -6z m57 5 c3 7 6 4 6 -7 1 -14 -5 -21 -19 -21 -13 0 -20 7
-20 19 0 16 3 17 14 8 11 -9 15 -9 19 1z m157 -10 c0 -11 -7 -18 -20 -18 -11
0 -20 7 -20 14 0 8 6 12 15 8 8 -3 15 -1 15 4 0 6 2 10 5 10 3 0 5 -8 5 -18z
m-460 -4 c0 -4 -7 -8 -15 -8 -8 0 -15 4 -15 8 0 5 7 9 15 9 8 0 15 -4 15 -9z
m58 -6 c2 -6 -5 -8 -17 -5 -12 3 -21 9 -21 13 0 12 33 5 38 -8z m51 0 c0 -10
-3 -12 -5 -5 -3 7 -12 9 -20 6 -8 -3 -14 -1 -14 4 0 5 9 9 20 10 13 1 20 -4
19 -15z m401 7 c0 -4 -9 -9 -20 -12 -13 -3 -20 0 -20 8 0 8 9 13 20 12 11 -1
20 -4 20 -8z m50 -1 c0 -4 -7 -8 -15 -8 -8 0 -15 4 -15 8 0 5 7 9 15 9 8 0 15
-4 15 -9z m-811 -83 c0 -11 -3 -14 -6 -7 -4 10 -8 10 -19 1 -11 -9 -14 -8 -14
8 0 12 7 19 20 19 14 0 20 -7 19 -21z m51 2 c0 -16 -3 -17 -14 -8 -11 9 -15 9
-19 -1 -3 -7 -6 -4 -6 7 -1 14 5 21 19 21 13 0 20 -7 20 -19z m23 -2 c-7 -21
-13 -19 -13 6 0 11 4 18 10 14 5 -3 7 -12 3 -20z m27 4 c0 -11 -4 -18 -10 -14
-5 3 -7 12 -3 20 7 21 13 19 13 -6z m142 12 c8 11 9 11 6 1 -4 -16 -22 -18
-24 -3 -2 8 -1 7 3 0 4 -8 8 -7 15 2z m48 -3 c0 7 5 10 10 7 6 -3 10 -14 10
-23 0 -13 -2 -14 -9 -4 -4 8 -12 13 -17 12 -5 -1 -10 4 -12 12 -2 9 0 8 7 -2
8 -11 11 -12 11 -2z m44 -4 c3 -8 2 -12 -4 -9 -6 3 -10 10 -10 16 0 14 7 11
14 -7z m26 -6 c0 -19 -2 -20 -10 -8 -13 19 -13 30 0 30 6 0 10 -10 10 -22z
m86 0 c13 -16 14 -19 2 -10 -13 10 -17 10 -21 0 -3 -7 -6 -3 -6 10 -1 27 1 27
25 0z m63 -3 c0 -11 -3 -14 -6 -7 -4 10 -8 10 -19 1 -11 -9 -14 -8 -14 8 0 12
7 19 20 19 14 0 20 -7 19 -21z m51 2 c0 -16 -3 -17 -14 -8 -11 9 -15 9 -19 -1
-3 -7 -6 -4 -6 7 -1 14 5 21 19 21 13 0 20 -7 20 -19z m130 16 c0 -5 -5 -15
-10 -23 -8 -12 -10 -11 -10 8 0 12 5 22 10 22 6 0 10 -3 10 -7z m20 -14 c0
-11 -4 -18 -10 -14 -5 3 -7 12 -3 20 7 21 13 19 13 -6z m30 14 c0 -5 -5 -15
-10 -23 -8 -12 -10 -11 -10 8 0 12 5 22 10 22 6 0 10 -3 10 -7z m20 -8 c0 -8
-4 -15 -10 -15 -5 0 -7 7 -4 15 4 8 8 15 10 15 2 0 4 -7 4 -15z m42 6 c8 11 9
11 6 1 -4 -16 -22 -18 -24 -3 -2 8 -1 7 3 0 4 -8 8 -7 15 2z m-802 -86 c0 -6
-9 -11 -20 -11 -11 0 -20 5 -20 11 0 6 9 11 20 11 11 0 20 -5 20 -11z m50 0
c0 -6 -9 -11 -20 -11 -11 0 -20 6 -20 13 0 6 9 11 20 10 11 -1 20 -6 20 -12z
m50 0 c0 -6 -9 -11 -20 -11 -11 0 -20 6 -20 13 0 6 9 11 20 10 11 -1 20 -6 20
-12z m150 3 c0 -4 -7 -8 -15 -8 -8 0 -15 4 -15 8 0 5 7 9 15 9 8 0 15 -4 15
-9z m58 -6 c2 -6 -5 -8 -17 -5 -12 3 -21 9 -21 13 0 12 33 5 38 -8z m52 3 c0
-8 -7 -11 -20 -8 -11 3 -20 8 -20 12 0 4 9 7 20 8 11 1 20 -4 20 -12z m150 0
c0 -6 -9 -11 -20 -11 -11 0 -20 5 -20 11 0 6 9 11 20 11 11 0 20 -5 20 -11z
m50 0 c0 -6 -9 -11 -20 -11 -11 0 -20 5 -20 11 0 6 9 11 20 11 11 0 20 -5 20
-11z m150 0 c0 -6 -9 -11 -20 -11 -11 0 -20 6 -20 13 0 6 9 11 20 10 11 -1 20
-6 20 -12z m50 4 c0 -4 -9 -9 -20 -12 -13 -3 -20 0 -20 8 0 8 9 13 20 12 11
-1 20 -4 20 -8z m50 -1 c0 -4 -7 -8 -15 -8 -8 0 -15 4 -15 8 0 5 7 9 15 9 8 0
15 -4 15 -9z m-837 -83 c-7 -21 -13 -19 -13 6 0 11 4 18 10 14 5 -3 7 -12 3
-20z m70 17 c3 7 6 4 6 -7 1 -14 -5 -21 -19 -21 -13 0 -20 7 -20 19 0 16 3 17
14 8 11 -9 15 -9 19 1z m50 0 c3 7 6 4 6 -7 1 -14 -5 -21 -19 -21 -13 0 -20 7
-20 19 0 16 3 17 14 8 11 -9 15 -9 19 1z m157 -7 c0 -8 -7 -15 -15 -15 -8 0
-15 5 -15 11 0 5 5 7 10 4 6 -3 10 -1 10 4 0 6 2 11 5 11 3 0 5 -7 5 -15z m46
-5 c5 1 10 -4 12 -12 3 -11 2 -11 -6 0 -5 8 -13 13 -18 12 -5 -1 -10 4 -12 12
-3 11 -2 11 6 0 5 -8 13 -13 18 -12z m50 7 c9 3 14 -1 13 -13 0 -11 -3 -14 -5
-7 -3 7 -12 9 -20 6 -9 -3 -14 1 -13 13 0 11 3 14 5 7 3 -7 12 -9 20 -6z m150
4 c11 9 14 8 14 -8 0 -12 -7 -19 -20 -19 -14 0 -20 7 -19 21 0 11 3 14 6 7 4
-10 8 -10 19 -1z m57 1 c3 7 6 4 6 -7 1 -14 -5 -21 -19 -21 -13 0 -20 7 -20
19 0 16 3 17 14 8 11 -9 15 -9 19 1z m157 -10 c0 -11 -7 -18 -20 -18 -11 0
-20 7 -20 14 0 8 6 12 15 8 8 -3 15 -1 15 4 0 6 2 10 5 10 3 0 5 -8 5 -18z
m50 4 c0 -7 -9 -16 -20 -19 -13 -3 -20 0 -20 10 0 9 6 13 15 9 8 -3 15 -1 15
4 0 6 2 10 5 10 3 0 5 -6 5 -14z m41 5 c7 11 9 10 9 -3 0 -10 -7 -18 -15 -18
-8 0 -15 8 -14 18 0 12 2 13 6 3 5 -11 7 -11 14 0z m-801 -17 c0 -8 -5 -12
-10 -9 -6 4 -8 11 -5 16 9 14 15 11 15 -7z m450 12 c0 -3 -4 -8 -10 -11 -5 -3
-10 -1 -10 4 0 6 5 11 10 11 6 0 10 -2 10 -4z m203 -10 c4 -10 1 -13 -8 -9 -8
3 -12 9 -9 14 7 12 11 11 17 -5z m-670 -75 c-4 -3 -11 -10 -15 -15 -5 -5 -8 0
-8 12 0 15 4 20 16 15 9 -3 12 -9 7 -12z m67 -6 c0 -17 -2 -17 -10 -5 -9 13
-11 13 -20 0 -8 -12 -10 -12 -10 5 0 14 6 21 20 21 14 0 20 -7 20 -21z m50 2
c0 -16 -3 -17 -14 -8 -11 9 -15 9 -19 -1 -3 -7 -6 -4 -6 7 -1 14 5 21 19 21
13 0 20 -7 20 -19z m148 11 c-2 -5 -8 -9 -13 -9 -5 0 -11 4 -13 9 -1 5 4 9 13
9 9 0 14 -4 13 -9z m42 0 c0 6 7 12 15 12 8 0 12 -6 9 -14 -7 -18 -37 -14 -42
5 -3 11 -1 11 7 -1 7 -10 11 -11 11 -2z m68 -5 c-2 -9 -11 -17 -21 -19 -10 -1
-16 3 -14 9 3 7 10 11 16 10 6 -2 11 2 11 7 0 6 3 10 6 10 3 0 4 -7 2 -17z
m81 3 c9 -10 8 -15 -2 -19 -8 -3 -13 3 -13 14 0 23 0 23 15 5z m71 -11 c0 -17
-2 -17 -10 -5 -9 13 -11 13 -20 0 -8 -12 -10 -12 -10 5 0 14 6 21 20 21 14 0
20 -7 20 -21z m50 0 c0 -17 -2 -17 -10 -5 -9 13 -11 13 -20 0 -8 -12 -10 -12
-10 5 0 14 6 21 20 21 14 0 20 -7 20 -21z m150 7 c0 -8 -6 -12 -14 -9 -8 3
-17 1 -20 -6 -2 -7 -5 -2 -5 10 -1 16 4 21 19 20 11 -1 20 -8 20 -15z m47 4
c-5 -15 -37 -16 -37 -1 0 8 9 13 20 12 11 -1 19 -6 17 -11z m45 5 c8 11 9 11
6 1 -4 -16 -22 -18 -24 -2 -2 7 -1 6 3 -1 4 -8 8 -7 15 2z m-835 -93 c-3 -8
-6 -5 -6 6 -1 11 2 17 5 13 3 -3 4 -12 1 -19z m83 7 c0 -6 -9 -11 -20 -11 -11
0 -20 6 -20 13 0 6 9 11 20 10 11 -1 20 -6 20 -12z m50 0 c0 -6 -9 -11 -20
-11 -11 0 -20 6 -20 13 0 6 9 11 20 10 11 -1 20 -6 20 -12z m150 3 c0 -4 -7
-8 -15 -8 -8 0 -15 4 -15 8 0 5 7 9 15 9 8 0 15 -4 15 -9z m58 -6 c2 -6 -5 -8
-17 -5 -12 3 -21 9 -21 13 0 12 33 5 38 -8z m33 1 c13 -16 12 -17 -3 -4 -17
13 -22 21 -14 21 2 0 10 -8 17 -17z m106 2 c0 -8 -4 -12 -9 -9 -5 3 -6 10 -3
15 9 13 12 11 12 -6z m63 0 c0 -6 -9 -11 -20 -11 -11 0 -20 5 -20 11 0 6 9 11
20 11 11 0 20 -5 20 -11z m50 0 c0 -6 -9 -11 -20 -11 -11 0 -20 5 -20 11 0 6
9 11 20 11 11 0 20 -5 20 -11z m150 0 c0 -6 -9 -11 -20 -11 -11 0 -20 6 -20
13 0 6 9 11 20 10 11 -1 20 -6 20 -12z m50 4 c0 -4 -9 -9 -20 -12 -13 -3 -20
0 -20 8 0 8 9 13 20 12 11 -1 20 -4 20 -8z m30 -4 c5 3 11 1 14 -4 4 -5 -2 -8
-11 -7 -9 2 -18 8 -19 15 -1 6 0 7 3 1 2 -5 9 -8 13 -5z m-135 -5 c3 -6 -1 -7
-9 -4 -18 7 -21 14 -7 14 6 0 13 -4 16 -10z m-612 -58 c3 7 6 4 6 -7 1 -14 -5
-21 -19 -21 -13 0 -20 7 -20 19 0 16 3 17 14 8 11 -9 15 -9 19 1z m50 0 c3 7
6 4 6 -7 1 -14 -5 -21 -19 -21 -13 0 -20 7 -20 19 0 16 3 17 14 8 11 -9 15 -9
19 1z m149 -1 c8 11 9 11 6 1 -4 -16 -22 -18 -24 -2 -2 7 -1 6 3 -1 4 -8 8 -7
15 2z m48 -3 c0 7 5 10 10 7 6 -3 10 -14 10 -23 0 -13 -2 -14 -9 -4 -4 8 -12
13 -17 12 -5 -1 -10 4 -12 12 -2 9 0 8 7 -2 8 -11 11 -12 11 -2z m219 -13 c0
-11 -3 -14 -6 -7 -4 10 -8 10 -19 1 -11 -9 -14 -8 -14 8 0 12 7 19 20 19 14 0
20 -7 19 -21z m24 0 c-7 -21 -13 -19 -13 6 0 11 4 18 10 14 5 -3 7 -12 3 -20z
m27 4 c0 -11 -4 -18 -10 -14 -5 3 -7 12 -3 20 7 21 13 19 13 -6z m123 -4 c-7
-21 -13 -19 -13 6 0 11 4 18 10 14 5 -3 7 -12 3 -20z m27 4 c0 -11 -4 -18 -10
-14 -5 3 -7 12 -3 20 7 21 13 19 13 -6z m21 -6 c-8 -15 -10 -15 -11 -2 0 17
10 32 18 25 2 -3 -1 -13 -7 -23z m29 12 c0 -8 -4 -15 -10 -15 -5 0 -7 7 -4 15
4 8 8 15 10 15 2 0 4 -7 4 -15z m-333 -17 c-3 -8 -6 -5 -6 6 -1 11 2 17 5 13
3 -3 4 -12 1 -19z m376 9 c3 -8 -1 -14 -8 -14 -7 0 -11 6 -8 14 6 16 10 16 16
0z m-555 -69 c-2 -5 -8 -9 -13 -9 -5 0 -11 4 -13 9 -1 5 4 9 13 9 9 0 14 -4
13 -9z m60 -6 c2 -6 -5 -9 -14 -8 -10 2 -20 8 -22 14 -2 6 5 9 14 8 10 -2 20
-8 22 -14z m202 -7 c0 -17 -2 -17 -10 -5 -9 13 -11 13 -20 0 -8 -12 -10 -12
-10 5 0 14 6 21 20 21 14 0 20 -7 20 -21z m186 5 c5 1 10 -3 12 -8 2 -6 -5 -9
-15 -8 -10 2 -19 11 -21 22 -2 14 -1 16 6 6 5 -8 13 -13 18 -12z m61 -12 c-3
-8 -6 -5 -6 6 -1 11 2 17 5 13 3 -3 4 -12 1 -19z"/>
</g>
</svg>
